<svg width="21" height="22" viewBox="0 0 21 22" fill="none" xmlns="http://www.w3.org/2000/svg">
<g clip-path="url(#clip0_694_21618)">
<path d="M0.441406 3.35203V1.65765C0.441406 1.2138 0.8012 0.854004 1.24506 0.854004H12.1052L15.514 4.2628V10.5426" stroke="#0AAA4A" stroke-width="0.602737" stroke-miterlimit="10" stroke-linecap="round" stroke-linejoin="round"/>
<path d="M14.5864 20.8247H1.24506C0.8012 20.8247 0.441406 20.4649 0.441406 20.0211V4.67139" stroke="#0AAA4A" stroke-width="0.602737" stroke-miterlimit="10" stroke-linecap="round" stroke-linejoin="round"/>
<path d="M12.1055 0.854004V3.45915C12.1055 3.90301 12.4653 4.2628 12.9091 4.2628H15.5143L12.1055 0.854004Z" stroke="#0AAA4A" stroke-width="0.602737" stroke-miterlimit="10" stroke-linecap="round" stroke-linejoin="round"/>
<path d="M4.70345 4.51074H3.05078V9.09263H4.70345V4.51074Z" stroke="#0AAA4A" stroke-width="0.602737" stroke-miterlimit="10" stroke-linecap="round" stroke-linejoin="round"/>
<path d="M7.43782 5.67578H5.78516V9.09237H7.43782V5.67578Z" stroke="#0AAA4A" stroke-width="0.602737" stroke-miterlimit="10" stroke-linecap="round" stroke-linejoin="round"/>
<path d="M10.1722 3.35205H8.51953V9.09251H10.1722V3.35205Z" stroke="#0AAA4A" stroke-width="0.602737" stroke-miterlimit="10" stroke-linecap="round" stroke-linejoin="round"/>
<path d="M12.9066 6.72754H11.2539V9.09268H12.9066V6.72754Z" stroke="#0AAA4A" stroke-width="0.602737" stroke-miterlimit="10" stroke-linecap="round" stroke-linejoin="round"/>
<path d="M2.25391 10.3813H13.7023" stroke="#0AAA4A" stroke-width="0.602737" stroke-miterlimit="10" stroke-linecap="round" stroke-linejoin="round"/>
<path d="M7.97831 12.4634H3.05078V13.9734H7.97831V12.4634Z" stroke="#0AAA4A" stroke-width="0.602737" stroke-miterlimit="10" stroke-linecap="round" stroke-linejoin="round"/>
<path d="M12.908 12.4634H7.98047V13.9734H12.908V12.4634Z" stroke="#0AAA4A" stroke-width="0.602737" stroke-miterlimit="10" stroke-linecap="round" stroke-linejoin="round"/>
<path d="M3.67188 15.4834H6.31833" stroke="#0AAA4A" stroke-width="0.602737" stroke-miterlimit="10" stroke-linecap="round" stroke-linejoin="round"/>
<path d="M3.67188 16.9937H6.31833" stroke="#0AAA4A" stroke-width="0.602737" stroke-miterlimit="10" stroke-linecap="round" stroke-linejoin="round"/>
<path d="M3.67188 18.5034H6.31833" stroke="#0AAA4A" stroke-width="0.602737" stroke-miterlimit="10" stroke-linecap="round" stroke-linejoin="round"/>
<path d="M9.63672 15.4834H12.2832" stroke="#0AAA4A" stroke-width="0.602737" stroke-miterlimit="10" stroke-linecap="round" stroke-linejoin="round"/>
<path d="M9.63672 16.9937H12.2832" stroke="#0AAA4A" stroke-width="0.602737" stroke-miterlimit="10" stroke-linecap="round" stroke-linejoin="round"/>
<path d="M9.63672 18.5034H12.2832" stroke="#0AAA4A" stroke-width="0.602737" stroke-miterlimit="10" stroke-linecap="round" stroke-linejoin="round"/>
<path d="M7.97656 13.9731V18.9202" stroke="#0AAA4A" stroke-width="0.602737" stroke-miterlimit="10" stroke-linecap="round" stroke-linejoin="round"/>
<path d="M17.2162 10.0405C15.4831 10.0405 14.0781 11.4477 14.0781 13.1834C14.0781 14.9192 15.4831 16.3263 17.2162 16.3263C18.9493 16.3263 20.3543 14.9192 20.3543 13.1834C20.3543 11.4477 18.9493 10.0405 17.2162 10.0405Z" stroke="#0AAA4A" stroke-width="0.602737" stroke-miterlimit="10" stroke-linecap="round" stroke-linejoin="round"/>
<path d="M18.8809 13.9707C18.9938 13.7317 19.0572 13.4649 19.0572 13.1833C19.0572 12.1655 18.2313 11.3374 17.2161 11.3374C16.2009 11.3374 15.375 12.1655 15.375 13.1833C15.375 14.2011 16.2009 15.0292 17.2161 15.0292C17.5161 15.0292 17.7993 14.9565 18.0498 14.8283" stroke="#0AAA4A" stroke-width="0.602737" stroke-miterlimit="10" stroke-linecap="round" stroke-linejoin="round"/>
<path d="M19.8439 17.836H14.5849C14.2964 17.836 14.0625 17.6022 14.0625 17.3136V16.8642C14.0625 16.5757 14.2964 16.3418 14.5849 16.3418H19.8438C20.1323 16.3418 20.3662 16.5757 20.3662 16.8642V17.3136C20.3662 17.6022 20.1323 17.836 19.8439 17.836Z" stroke="#0AAA4A" stroke-width="0.602737" stroke-miterlimit="10" stroke-linecap="round" stroke-linejoin="round"/>
<path d="M19.8439 19.3307H14.5849C14.2964 19.3307 14.0625 19.0968 14.0625 18.8083V18.3588C14.0625 18.0703 14.2964 17.8364 14.5849 17.8364H19.8438C20.1323 17.8364 20.3662 18.0703 20.3662 18.3588V18.8083C20.3662 19.0967 20.1323 19.3307 19.8439 19.3307Z" stroke="#0AAA4A" stroke-width="0.602737" stroke-miterlimit="10" stroke-linecap="round" stroke-linejoin="round"/>
<path d="M19.8439 20.8248H14.5849C14.2964 20.8248 14.0625 20.5909 14.0625 20.3024V19.8529C14.0625 19.5644 14.2964 19.3306 14.5849 19.3306H19.8438C20.1323 19.3306 20.3662 19.5644 20.3662 19.8529V20.3024C20.3662 20.5909 20.1323 20.8248 19.8439 20.8248Z" stroke="#0AAA4A" stroke-width="0.602737" stroke-miterlimit="10" stroke-linecap="round" stroke-linejoin="round"/>
</g>
<defs>
<clipPath id="clip0_694_21618">
<rect width="20.5734" height="20.5734" fill="white" transform="translate(0.117188 0.552734)"/>
</clipPath>
</defs>
</svg>
