<svg width="22" height="25" viewBox="0 0 22 25" fill="none" xmlns="http://www.w3.org/2000/svg">
<path d="M20.4 23.6551H3.6V14.0551H10C10.6627 14.0551 11.2 13.5178 11.2 12.8551V2.85508H15.6V7.65508H20.4V13.2551H21.2V7.08945L16.1656 2.05508H11.2V1.65508C11.2 0.992383 10.6627 0.455078 10 0.455078H1.2C0.537305 0.455078 0 0.992383 0 1.65508V12.8551C0 13.5178 0.537305 14.0551 1.2 14.0551H2.8V24.4551H21.2V18.8551H20.4V23.6551ZM16.4 3.4207L19.8344 6.85508H16.4V3.4207ZM0.8 12.8551V1.65508C0.8 1.43418 0.979102 1.25508 1.2 1.25508H10C10.2209 1.25508 10.4 1.43418 10.4 1.65508V12.8551C10.4 13.076 10.2209 13.2551 10 13.2551H1.2C0.979102 13.2551 0.8 13.076 0.8 12.8551Z" fill="white"/>
</svg>
