<svg width="19" height="18" viewBox="0 0 19 18" fill="none" xmlns="http://www.w3.org/2000/svg">
<g clip-path="url(#clip0_2826_5680)">
<path d="M12.6798 16.8705V10.6521L11.6712 10.1796L11.3974 8.72559H7.82998L7.55622 10.1796L6.58008 10.6369V16.8705H12.6798Z" fill="#E2B48A"/>
<path d="M16.8777 17.551L16.6171 14.22C16.5747 13.6771 16.3891 13.1552 16.0792 12.7074C15.7694 12.2596 15.3463 11.9019 14.8532 11.6709L12.0539 10.3594V11.1694H11.7349V11.5946H7.03878V10.4229L4.37452 11.6709C3.88134 11.9019 3.45823 12.2595 3.14831 12.7073C2.83839 13.1551 2.65274 13.6771 2.61028 14.22L2.3501 17.551H16.8777Z" fill="#BAC2D3"/>
<path d="M10.0303 11.6035H8.68947L8.43408 12.1989L9.20366 13.1783L8.75626 15.3259L9.61308 17.1823L10.573 15.1856L10.1709 13.1383L10.7803 12.1364L10.0303 11.6035Z" fill="#DA2A47"/>
<path d="M16.6172 14.2192C16.5748 13.6763 16.3892 13.1544 16.0793 12.7066C15.7694 12.2588 15.3464 11.9011 14.8532 11.6701L12.3021 10.4746C12.0941 11.6594 11.6 12.7451 11.0632 13.8144C10.8143 14.3103 10.581 14.8045 10.3614 15.3131C10.2389 15.5949 9.61388 17.2418 9.61388 17.2418C9.61388 17.2418 8.60057 14.7195 8.4161 14.2413C8.16606 13.5929 7.97363 12.918 7.64227 12.3045C7.58548 12.1993 7.52555 12.0959 7.46396 11.9932C6.90025 11.7718 6.61044 11.2937 6.62114 10.6174L4.37452 11.6701C3.88134 11.9011 3.45823 12.2587 3.14831 12.7065C2.83839 13.1543 2.65274 13.6763 2.61028 14.2192L2.3501 17.5502H16.8777L16.6172 14.2192Z" fill="#213D8B"/>
<path d="M16.6172 14.2192C16.5748 13.6763 16.3892 13.1544 16.0793 12.7066C15.7694 12.2588 15.3464 11.9011 14.8532 11.6701L12.3021 10.4746C12.0941 11.6594 11.6 12.7451 11.0632 13.8144C10.8143 14.3103 10.581 14.8045 10.3614 15.3131C10.2389 15.5949 9.61388 17.2418 9.61388 17.2418C9.61388 17.2418 8.60057 14.7195 8.4161 14.2413C8.16606 13.5929 7.97363 12.918 7.64227 12.3045C7.58548 12.1993 7.52555 12.0959 7.46396 11.9932C6.90025 11.7718 6.61044 11.2937 6.62114 10.6174L4.37452 11.6701C3.88134 11.9011 3.45823 12.2587 3.14831 12.7065C2.83839 13.1543 2.65274 13.6763 2.61028 14.2192L2.3501 17.5502H16.8777L16.6172 14.2192Z" fill="#384868"/>
<path d="M16.8777 17.5505H14.9109L14.6503 14.219C14.6074 13.6761 14.4215 13.1543 14.1115 12.7067C13.8014 12.259 13.3782 11.9016 12.8851 11.6706L12.1074 11.3058C12.1867 11.0324 12.2513 10.7549 12.3008 10.4746L14.8533 11.6706C15.3463 11.9016 15.7692 12.2592 16.079 12.7068C16.3889 13.1545 16.5745 13.6762 16.6171 14.219L16.8777 17.5505Z" fill="#2F3A5A"/>
<path d="M13.5019 6.84854C13.6475 6.22658 13.4834 5.65633 13.1354 5.57487C12.7874 5.4934 12.3872 5.93156 12.2416 6.55352C12.0961 7.17549 12.2602 7.74573 12.6082 7.8272C12.9562 7.90866 13.3563 7.4705 13.5019 6.84854Z" fill="#E2B48A"/>
<path d="M6.5983 7.83138C6.94632 7.74992 7.11042 7.17967 6.96483 6.55771C6.81923 5.93575 6.41908 5.49759 6.07106 5.57905C5.72304 5.66052 5.55894 6.23076 5.70454 6.85273C5.85013 7.47469 6.25028 7.91285 6.5983 7.83138Z" fill="#E2B48A"/>
<path d="M9.60081 9.97115C11.4058 9.97115 12.8691 7.95436 12.8691 5.46653C12.8691 2.9787 11.4058 0.961914 9.60081 0.961914C7.79578 0.961914 6.33252 2.9787 6.33252 5.46653C6.33252 7.95436 7.79578 9.97115 9.60081 9.97115Z" fill="#F0C191"/>
<path d="M12.6636 7.02046C12.6636 7.02046 13.8178 4.95832 13.5678 3.32287C13.3177 1.68742 12.216 1.17116 11.5613 1.17116C11.5613 1.17116 10.6778 -0.137169 8.49436 0.396506C6.31098 0.93018 5.43304 3.32781 5.84615 4.84036C6.25927 6.35292 6.53468 7.04775 6.53468 7.04775C6.53468 7.04775 6.25927 5.11385 6.5691 4.04609C6.87894 2.97833 7.80858 2.13523 8.17013 2.42765C8.53167 2.72007 10.8384 2.6231 11.217 1.97504C11.7146 2.33959 12.0475 2.88624 12.1433 3.49555C12.2667 4.47676 12.8179 5.07929 12.7664 5.78496C12.7148 6.49062 12.6636 7.02046 12.6636 7.02046Z" fill="#2F3A5A"/>
<path d="M11.5772 9.67578L9.61377 11.5943L11.3664 12.7987L12.1865 10.4189L11.5772 9.67578Z" fill="#0C1C28"/>
<path d="M7.04102 10.4189L7.92951 12.7431L9.61379 11.5943L7.6504 9.67578L7.04102 10.4189Z" fill="#0C1C28"/>
<path d="M12.6979 10.6604L11.5775 9.67518L11.5752 9.67285C11.5752 9.67285 11.5547 12.6162 9.61384 17.182C7.67253 12.6162 7.65251 9.67285 7.65251 9.67285L7.65018 9.67518L6.52989 10.6604L6.33252 12.3259L7.26148 12.1773L6.56486 13.2334C6.96879 14.2174 9.61412 17.2897 9.61412 17.2897C10.0304 16.8301 12.3219 14.1772 12.6786 13.3076L11.9661 12.1773L13.0058 12.2069L12.6979 10.6604Z" fill="#43567C"/>
</g>
<defs>
<clipPath id="clip0_2826_5680">
<rect width="17.556" height="17.556" fill="white" transform="translate(0.835938 0.131836)"/>
</clipPath>
</defs>
</svg>
