<svg width="21" height="22" viewBox="0 0 21 22" fill="none" xmlns="http://www.w3.org/2000/svg">
<g clip-path="url(#clip0_694_7150)">
<path d="M14.8765 10.6673H10.8513V6.64203C10.8513 6.39502 10.651 6.19476 10.404 6.19476C10.157 6.19476 9.95677 6.39502 9.95677 6.64203V10.6673H5.93154C4.6965 10.6673 3.69531 11.6684 3.69531 12.9035V15.587C3.69531 15.834 3.89557 16.0342 4.14257 16.0342C4.38958 16.0342 4.58984 15.834 4.58984 15.587V12.9035C4.58984 12.1625 5.19056 11.5617 5.93158 11.5617H14.8765C15.6175 11.5617 16.2183 12.1625 16.2183 12.9035V15.587C16.2183 15.834 16.4185 16.0342 16.6655 16.0342C16.9125 16.0342 17.1128 15.834 17.1128 15.587V12.9035C17.1127 11.6684 16.1116 10.6673 14.8765 10.6673Z" fill="white"/>
<path d="M10.4042 7.08926C12.1333 7.08926 13.5349 5.68757 13.5349 3.95851C13.5349 2.22944 12.1333 0.827759 10.4042 0.827759C8.67512 0.827759 7.27344 2.22944 7.27344 3.95851C7.27344 5.68757 8.67512 7.08926 10.4042 7.08926Z" fill="white"/>
<path d="M10.4043 11.5614C10.1573 11.5614 9.95703 11.3612 9.95703 11.1142V6.64172C9.95703 6.39471 10.1573 6.19446 10.4043 6.19446C10.6513 6.19446 10.8516 6.39471 10.8516 6.64172V11.1142C10.8516 11.3612 10.6513 11.5614 10.4043 11.5614Z" fill="white"/>
<path d="M16.6655 16.0342C16.4185 16.0342 16.2183 15.8339 16.2183 15.5869V12.9034C16.2183 12.1624 15.6175 11.5617 14.8765 11.5617H5.93158C5.19056 11.5617 4.58984 12.1624 4.58984 12.9034V15.5869C4.58984 15.8339 4.38958 16.0342 4.14257 16.0342C3.89557 16.0342 3.69531 15.8339 3.69531 15.5869V12.9034C3.69531 11.6684 4.6965 10.6672 5.93154 10.6672H14.8765C16.1116 10.6672 17.1127 11.6684 17.1127 12.9034V15.5869C17.1127 15.8339 16.9125 16.0342 16.6655 16.0342Z" fill="white"/>
<path d="M10.4042 7.08921C8.67514 7.08921 7.27344 5.68755 7.27344 3.95847C7.27344 2.22938 8.67514 0.827759 10.4042 0.827759C12.1332 0.827759 13.5349 2.22942 13.5349 3.95851C13.5349 5.6876 12.1333 7.08921 10.4042 7.08921ZM10.4042 1.72224C9.16915 1.72224 8.16796 2.72343 8.16796 3.95851C8.16796 5.19358 9.16915 6.19473 10.4042 6.19473C11.6392 6.19473 12.6404 5.19354 12.6404 3.95851C12.6404 2.72347 11.6393 1.72224 10.4042 1.72224Z" fill="white"/>
<path d="M4.14247 21.4011C2.41342 21.4011 1.01172 19.9995 1.01172 18.2704C1.01172 16.5413 2.41342 15.1396 4.14247 15.1396C5.87151 15.1396 7.27322 16.5413 7.27322 18.2704C7.27322 19.9995 5.87151 21.4011 4.14247 21.4011ZM4.14247 16.0341C2.90743 16.0341 1.90624 17.0353 1.90624 18.2704C1.90624 19.5054 2.90743 20.5066 4.14247 20.5066C5.3775 20.5066 6.37869 19.5054 6.37869 18.2704C6.37869 17.0353 5.3775 16.0341 4.14247 16.0341Z" fill="white"/>
<path d="M16.6659 21.4013C14.9368 21.4013 13.5352 19.9996 13.5352 18.2705C13.5352 16.5415 14.9368 15.1398 16.6659 15.1398C18.395 15.1398 19.7967 16.5414 19.7967 18.2705C19.7967 19.9996 18.395 21.4013 16.6659 21.4013ZM16.6659 16.0343C15.4309 16.0343 14.4297 17.0355 14.4297 18.2705C14.4297 19.5056 15.4309 20.5067 16.6659 20.5067C17.9009 20.5067 18.9021 19.5056 18.9021 18.2705C18.9021 17.0355 17.9009 16.0343 16.6659 16.0343Z" fill="white"/>
</g>
<defs>
<clipPath id="clip0_694_7150">
<rect width="20.5734" height="20.5734" fill="white" transform="translate(0.117188 0.827759)"/>
</clipPath>
</defs>
</svg>
