<svg width="21" height="22" viewBox="0 0 21 22" fill="none" xmlns="http://www.w3.org/2000/svg">
<g clip-path="url(#clip0_694_21558)">
<path d="M14.8765 10.2806H10.8513V6.25537C10.8513 6.00836 10.651 5.80811 10.404 5.80811C10.157 5.80811 9.95677 6.00836 9.95677 6.25537V10.2806H5.93154C4.6965 10.2806 3.69531 11.2818 3.69531 12.5168V15.2003C3.69531 15.4473 3.89557 15.6476 4.14257 15.6476C4.38958 15.6476 4.58984 15.4473 4.58984 15.2003V12.5168C4.58984 11.7758 5.19056 11.1751 5.93158 11.1751H14.8765C15.6175 11.1751 16.2183 11.7758 16.2183 12.5168V15.2003C16.2183 15.4473 16.4185 15.6476 16.6655 15.6476C16.9125 15.6476 17.1128 15.4473 17.1128 15.2003V12.5168C17.1127 11.2818 16.1116 10.2806 14.8765 10.2806Z" fill="#0AAA4A"/>
<path d="M10.4042 6.70242C12.1333 6.70242 13.5349 5.30073 13.5349 3.57167C13.5349 1.8426 12.1333 0.440918 10.4042 0.440918C8.67512 0.440918 7.27344 1.8426 7.27344 3.57167C7.27344 5.30073 8.67512 6.70242 10.4042 6.70242Z" fill="#0AAA4A"/>
<path d="M10.4043 11.1751C10.1573 11.1751 9.95703 10.9748 9.95703 10.7278V6.25537C9.95703 6.00836 10.1573 5.80811 10.4043 5.80811C10.6513 5.80811 10.8516 6.00836 10.8516 6.25537V10.7279C10.8516 10.9748 10.6513 11.1751 10.4043 11.1751Z" fill="#0AAA4A"/>
<path d="M16.6655 15.6472C16.4185 15.6472 16.2183 15.447 16.2183 15.2V12.5165C16.2183 11.7755 15.6175 11.1748 14.8765 11.1748H5.93158C5.19056 11.1748 4.58984 11.7755 4.58984 12.5165V15.2C4.58984 15.447 4.38958 15.6472 4.14257 15.6472C3.89557 15.6472 3.69531 15.447 3.69531 15.2V12.5165C3.69531 11.2815 4.6965 10.2803 5.93154 10.2803H14.8765C16.1116 10.2803 17.1127 11.2815 17.1127 12.5165V15.2C17.1127 15.447 16.9125 15.6472 16.6655 15.6472Z" fill="#0AAA4A"/>
<path d="M10.4042 6.70237C8.67514 6.70237 7.27344 5.30071 7.27344 3.57162C7.27344 1.84254 8.67514 0.440918 10.4042 0.440918C12.1332 0.440918 13.5349 1.84258 13.5349 3.57167C13.5349 5.30075 12.1333 6.70237 10.4042 6.70237ZM10.4042 1.3354C9.16915 1.3354 8.16796 2.33659 8.16796 3.57167C8.16796 4.80674 9.16915 5.80789 10.4042 5.80789C11.6392 5.80789 12.6404 4.8067 12.6404 3.57167C12.6404 2.33663 11.6393 1.3354 10.4042 1.3354Z" fill="#0AAA4A"/>
<path d="M4.14247 21.0144C2.41342 21.0144 1.01172 19.6128 1.01172 17.8837C1.01172 16.1546 2.41342 14.7529 4.14247 14.7529C5.87151 14.7529 7.27322 16.1546 7.27322 17.8837C7.27322 19.6128 5.87151 21.0144 4.14247 21.0144ZM4.14247 15.6475C2.90743 15.6475 1.90624 16.6486 1.90624 17.8837C1.90624 19.1187 2.90743 20.1199 4.14247 20.1199C5.3775 20.1199 6.37869 19.1187 6.37869 17.8837C6.37869 16.6486 5.3775 15.6475 4.14247 15.6475Z" fill="#0AAA4A"/>
<path d="M16.6659 21.0144C14.9368 21.0144 13.5352 19.6127 13.5352 17.8837C13.5352 16.1546 14.9368 14.7529 16.6659 14.7529C18.395 14.7529 19.7967 16.1546 19.7967 17.8837C19.7967 19.6128 18.395 21.0144 16.6659 21.0144ZM16.6659 15.6475C15.4309 15.6475 14.4297 16.6486 14.4297 17.8837C14.4297 19.1187 15.4309 20.1199 16.6659 20.1199C17.9009 20.1199 18.9021 19.1187 18.9021 17.8837C18.9021 16.6486 17.9009 15.6475 16.6659 15.6475Z" fill="#0AAA4A"/>
</g>
<defs>
<clipPath id="clip0_694_21558">
<rect width="20.5734" height="20.5734" fill="white" transform="translate(0.117188 0.440918)"/>
</clipPath>
</defs>
</svg>
