<svg width="15" height="15" viewBox="0 0 15 15" fill="none" xmlns="http://www.w3.org/2000/svg">
<path d="M4.98894 7.93032L4.53394 9.29532C4.47202 9.47568 4.46216 9.66984 4.50549 9.85555C4.54882 10.0413 4.64359 10.211 4.77894 10.3453C4.91365 10.4801 5.08339 10.5745 5.26895 10.6178C5.45452 10.6611 5.6485 10.6516 5.82894 10.5903L7.19977 10.1353C7.26314 10.1131 7.32088 10.0772 7.36894 10.0303L13.5523 3.84116C13.7428 3.64983 13.8498 3.39079 13.8498 3.12074C13.8498 2.85069 13.7428 2.59165 13.5523 2.40032L12.7239 1.57199C12.5326 1.38142 12.2736 1.27441 12.0035 1.27441C11.7335 1.27441 11.4744 1.38142 11.2831 1.57199L5.09394 7.76116C5.04703 7.80922 5.01119 7.86696 4.98894 7.93032ZM11.9014 2.19032C11.9294 2.16491 11.9658 2.15083 12.0035 2.15083C12.0413 2.15083 12.0777 2.16491 12.1056 2.19032L12.9339 3.01866C12.9594 3.04658 12.9734 3.08298 12.9734 3.12074C12.9734 3.1585 12.9594 3.1949 12.9339 3.22282L12.0064 4.15032L10.9739 3.11782L11.9014 2.19032ZM5.36227 9.57532L5.78811 8.30366L10.3556 3.73616L11.3881 4.76866L6.82061 9.33616L5.54894 9.76199C5.52289 9.77139 5.49471 9.77317 5.46769 9.76714C5.44066 9.76111 5.41591 9.74751 5.39633 9.72793C5.37675 9.70835 5.36315 9.6836 5.35712 9.65658C5.35109 9.62955 5.35288 9.60137 5.36227 9.57532ZM13.8498 6.65866V11.6287C13.8498 12.2088 13.6193 12.7652 13.2091 13.1755C12.7988 13.5857 12.2424 13.8162 11.6623 13.8162H3.49561C2.91544 13.8162 2.35905 13.5857 1.94881 13.1755C1.53857 12.7652 1.30811 12.2088 1.30811 11.6287V3.46199C1.30811 2.88183 1.53857 2.32543 1.94881 1.91519C2.35905 1.50496 2.91544 1.27449 3.49561 1.27449H8.45977C8.57581 1.27449 8.68708 1.32058 8.76913 1.40263C8.85118 1.48468 8.89727 1.59596 8.89727 1.71199C8.89727 1.82802 8.85118 1.9393 8.76913 2.02135C8.68708 2.1034 8.57581 2.14949 8.45977 2.14949H3.49561C3.14751 2.14949 2.81367 2.28777 2.56753 2.53391C2.32139 2.78005 2.18311 3.11389 2.18311 3.46199V11.6287C2.18311 11.9768 2.32139 12.3106 2.56753 12.5567C2.81367 12.8029 3.14751 12.9412 3.49561 12.9412H11.6623C12.0104 12.9412 12.3442 12.8029 12.5904 12.5567C12.8365 12.3106 12.9748 11.9768 12.9748 11.6287V6.66449C12.9748 6.54846 13.0209 6.43718 13.1029 6.35513C13.185 6.27308 13.2962 6.22699 13.4123 6.22699C13.5283 6.22699 13.6396 6.27308 13.7216 6.35513C13.8037 6.43718 13.8498 6.54846 13.8498 6.66449V6.65866Z" fill="#0AAA4A"/>
</svg>
