<svg width="16" height="19" viewBox="0 0 16 19" fill="none" xmlns="http://www.w3.org/2000/svg">
<path d="M7.71631 9.18135C8.94023 9.18135 10 8.74239 10.866 7.8763C11.7319 7.01036 12.1709 5.95083 12.1709 4.72677C12.1709 3.50313 11.7319 2.44346 10.8658 1.57723C9.99976 0.711429 8.94008 0.272461 7.71631 0.272461C6.49225 0.272461 5.43271 0.711429 4.56677 1.57737C3.70083 2.44331 3.26172 3.50299 3.26172 4.72677C3.26172 5.95083 3.70083 7.0105 4.56691 7.87644C5.433 8.74225 6.49267 9.18135 7.71631 9.18135Z" fill="white"/>
<path d="M15.5099 14.4938C15.4849 14.1335 15.4344 13.7404 15.36 13.3252C15.2849 12.907 15.1883 12.5116 15.0726 12.1503C14.9531 11.7768 14.7905 11.408 14.5896 11.0545C14.381 10.6876 14.1361 10.3682 13.8612 10.1053C13.5738 9.83029 13.2219 9.60918 12.8149 9.4479C12.4094 9.28747 11.96 9.2062 11.4793 9.2062C11.2905 9.2062 11.1079 9.28366 10.7553 9.51323C10.5383 9.65476 10.2844 9.81844 10.0011 9.99947C9.75882 10.1538 9.43062 10.2985 9.02524 10.4294C8.62973 10.5574 8.22815 10.6223 7.83179 10.6223C7.43544 10.6223 7.034 10.5574 6.63807 10.4294C6.23311 10.2986 5.90491 10.154 5.66292 9.99961C5.38227 9.82027 5.12828 9.65659 4.90802 9.51309C4.55583 9.28352 4.3731 9.20605 4.18431 9.20605C3.70343 9.20605 3.25417 9.28747 2.84878 9.44804C2.44212 9.60904 2.09007 9.83015 1.80237 10.1054C1.52764 10.3685 1.28255 10.6878 1.07428 11.0545C0.873494 11.408 0.710944 11.7766 0.59129 12.1504C0.475727 12.5118 0.379073 12.907 0.304006 13.3252C0.229646 13.7398 0.179131 14.1331 0.154156 14.4943C0.129604 14.8482 0.117188 15.2154 0.117188 15.5864C0.117188 16.5518 0.424084 17.3334 1.02927 17.9098C1.62698 18.4786 2.41785 18.7671 3.37961 18.7671H12.2848C13.2466 18.7671 14.0372 18.4787 14.635 17.9098C15.2404 17.3338 15.5472 16.5521 15.5472 15.5863C15.5471 15.2136 15.5345 14.846 15.5099 14.4938Z" fill="white"/>
</svg>
