<svg width="19" height="20" viewBox="0 0 19 20" fill="none" xmlns="http://www.w3.org/2000/svg">
<path d="M9.3829 10.3693C8.65048 10.3693 7.9345 10.1521 7.32551 9.74521C6.71652 9.3383 6.24187 8.75994 5.96158 8.08326C5.68129 7.40659 5.60796 6.662 5.75085 5.94364C5.89373 5.22529 6.24643 4.56544 6.76433 4.04754C7.28224 3.52963 7.94209 3.17694 8.66044 3.03405C9.37879 2.89116 10.1234 2.9645 10.8001 3.24478C11.4767 3.52507 12.0551 3.99972 12.462 4.60871C12.8689 5.2177 13.0861 5.93368 13.0861 6.6661C13.0861 7.64826 12.696 8.59018 12.0015 9.28467C11.307 9.97916 10.3651 10.3693 9.3829 10.3693ZM9.3829 4.1973C8.89462 4.1973 8.4173 4.34209 8.01131 4.61337C7.60531 4.88464 7.28888 5.27022 7.10202 5.72133C6.91516 6.17245 6.86627 6.66884 6.96153 7.14775C7.05679 7.62665 7.29192 8.06655 7.63719 8.41182C7.98246 8.75708 8.42236 8.99222 8.90126 9.08748C9.38016 9.18273 9.87656 9.13384 10.3277 8.94699C10.7788 8.76013 11.1644 8.44369 11.4356 8.0377C11.7069 7.63171 11.8517 7.15439 11.8517 6.6661C11.8517 6.01134 11.5916 5.38338 11.1286 4.92039C10.6656 4.4574 10.0377 4.1973 9.3829 4.1973Z" fill="white"/>
<path d="M9.38057 19.0102C8.01189 19.0093 6.66043 18.705 5.4235 18.119C4.18657 17.5331 3.09494 16.6802 2.22719 15.6218L1.90625 15.2268L2.22719 14.838C3.09567 13.7809 4.18763 12.9294 5.42452 12.3448C6.66141 11.7602 8.01249 11.457 9.38057 11.457C10.7486 11.457 12.0997 11.7602 13.3366 12.3448C14.5735 12.9294 15.6655 13.7809 16.5339 14.838L16.8549 15.2268L16.5339 15.6218C15.6662 16.6802 14.5746 17.5331 13.3376 18.119C12.1007 18.705 10.7492 19.0093 9.38057 19.0102ZM3.52332 15.233C4.27398 16.0366 5.18182 16.6773 6.19048 17.1154C7.19913 17.5534 8.28707 17.7795 9.38674 17.7795C10.4864 17.7795 11.5743 17.5534 12.583 17.1154C13.5917 16.6773 14.4995 16.0366 15.2502 15.233C14.4995 14.4294 13.5917 13.7886 12.583 13.3506C11.5743 12.9125 10.4864 12.6865 9.38674 12.6865C8.28707 12.6865 7.19913 12.9125 6.19048 13.3506C5.18182 13.7886 4.27398 14.4294 3.52332 15.233Z" fill="white"/>
<path d="M9.3814 19.0102C7.27843 19.0116 5.23765 18.297 3.59494 16.984C1.95222 15.671 0.805471 13.8379 0.343422 11.7863C-0.118628 9.73471 0.13156 7.58695 1.05281 5.69651C1.97405 3.80607 3.51146 2.2856 5.41199 1.38535C7.31252 0.485096 9.46292 0.258713 11.5093 0.743458C13.5556 1.2282 15.3759 2.39519 16.6706 4.05235C17.9654 5.7095 18.6573 7.75808 18.6326 9.8609C18.6079 11.9637 17.8681 13.9955 16.5348 15.6218C15.667 16.6802 14.5754 17.5331 13.3385 18.119C12.1015 18.7049 10.7501 19.0093 9.3814 19.0102ZM9.3814 1.72855C7.79448 1.72855 6.24319 2.19913 4.92371 3.08078C3.60423 3.96242 2.57582 5.21554 1.96853 6.68167C1.36125 8.1478 1.20235 9.76108 1.51194 11.3175C1.82154 12.8739 2.58571 14.3036 3.70784 15.4257C4.82996 16.5479 6.25964 17.312 7.81607 17.6216C9.3725 17.9312 10.9858 17.7723 12.4519 17.165C13.918 16.5578 15.1712 15.5293 16.0528 14.2099C16.9345 12.8904 17.405 11.3391 17.405 9.75218C17.405 7.62418 16.5597 5.58334 15.055 4.07862C13.5502 2.5739 11.5094 1.72855 9.3814 1.72855Z" fill="white"/>
<path d="M2.70312 15.2327C2.70312 15.2327 8.91835 22.1762 15.2447 15.924L16.0594 15.2327C16.0594 15.2327 10.7761 9.75197 5.41264 13.0417L2.70312 15.2327Z" fill="white"/>
<path d="M9.38289 9.7521C11.0872 9.7521 12.4689 8.37044 12.4689 6.66609C12.4689 4.96173 11.0872 3.58008 9.38289 3.58008C7.67853 3.58008 6.29688 4.96173 6.29688 6.66609C6.29688 8.37044 7.67853 9.7521 9.38289 9.7521Z" fill="white"/>
</svg>
