<svg width="19" height="19" viewBox="0 0 19 19" fill="none" xmlns="http://www.w3.org/2000/svg">
<path d="M9.3829 9.98309C8.65048 9.98309 7.9345 9.7659 7.32551 9.35898C6.71652 8.95207 6.24187 8.37371 5.96158 7.69703C5.68129 7.02036 5.60796 6.27577 5.75085 5.55741C5.89373 4.83906 6.24643 4.17921 6.76433 3.66131C7.28224 3.1434 7.94209 2.79071 8.66044 2.64782C9.37879 2.50493 10.1234 2.57826 10.8001 2.85855C11.4767 3.13884 12.0551 3.61349 12.462 4.22248C12.8689 4.83147 13.0861 5.54745 13.0861 6.27987C13.0861 7.26203 12.696 8.20395 12.0015 8.89844C11.307 9.59293 10.3651 9.98309 9.3829 9.98309ZM9.3829 3.81107C8.89462 3.81107 8.4173 3.95586 8.01131 4.22714C7.60531 4.49841 7.28888 4.88399 7.10202 5.3351C6.91516 5.78622 6.86627 6.28261 6.96153 6.76151C7.05679 7.24042 7.29192 7.68032 7.63719 8.02559C7.98246 8.37085 8.42236 8.60599 8.90126 8.70125C9.38016 8.7965 9.87656 8.74761 10.3277 8.56076C10.7788 8.3739 11.1644 8.05746 11.4356 7.65147C11.7069 7.24548 11.8517 6.76816 11.8517 6.27987C11.8517 5.62511 11.5916 4.99715 11.1286 4.53416C10.6656 4.07117 10.0377 3.81107 9.3829 3.81107Z" fill="#0AAA4A"/>
<path d="M9.38057 18.624C8.01189 18.6231 6.66043 18.3187 5.4235 17.7328C4.18657 17.1469 3.09494 16.294 2.22719 15.2356L1.90625 14.8406L2.22719 14.4517C3.09567 13.3947 4.18763 12.5432 5.42452 11.9586C6.66141 11.374 8.01249 11.0708 9.38057 11.0708C10.7486 11.0708 12.0997 11.374 13.3366 11.9586C14.5735 12.5432 15.6655 13.3947 16.5339 14.4517L16.8549 14.8406L16.5339 15.2356C15.6662 16.294 14.5746 17.1469 13.3376 17.7328C12.1007 18.3187 10.7492 18.6231 9.38057 18.624ZM3.52332 14.8467C4.27398 15.6503 5.18182 16.2911 6.19048 16.7291C7.19913 17.1672 8.28707 17.3932 9.38674 17.3932C10.4864 17.3932 11.5743 17.1672 12.583 16.7291C13.5917 16.2911 14.4995 15.6503 15.2502 14.8467C14.4995 14.0431 13.5917 13.4024 12.583 12.9643C11.5743 12.5263 10.4864 12.3002 9.38674 12.3002C8.28707 12.3002 7.19913 12.5263 6.19048 12.9643C5.18182 13.4024 4.27398 14.0431 3.52332 14.8467Z" fill="#0AAA4A"/>
<path d="M9.3814 18.624C7.27843 18.6254 5.23765 17.9108 3.59494 16.5978C1.95222 15.2848 0.805471 13.4516 0.343422 11.4001C-0.118628 9.34848 0.13156 7.20072 1.05281 5.31028C1.97405 3.41984 3.51146 1.89937 5.41199 0.999117C7.31252 0.0988655 9.46292 -0.127517 11.5093 0.357228C13.5556 0.841973 15.3759 2.00896 16.6706 3.66612C17.9654 5.32327 18.6573 7.37185 18.6326 9.47467C18.6079 11.5775 17.8681 13.6092 16.5348 15.2355C15.667 16.294 14.5754 17.1469 13.3385 17.7328C12.1015 18.3187 10.7501 18.6231 9.3814 18.624ZM9.3814 1.34232C7.79448 1.34232 6.24319 1.8129 4.92371 2.69455C3.60423 3.57619 2.57582 4.82931 1.96853 6.29544C1.36125 7.76156 1.20235 9.37485 1.51194 10.9313C1.82154 12.4877 2.58571 13.9174 3.70784 15.0395C4.82996 16.1616 6.25964 16.9258 7.81607 17.2354C9.3725 17.545 10.9858 17.3861 12.4519 16.7788C13.918 16.1715 15.1712 15.1431 16.0528 13.8236C16.9345 12.5042 17.405 10.9529 17.405 9.36595C17.405 7.23795 16.5597 5.19711 15.055 3.69239C13.5502 2.18766 11.5094 1.34232 9.3814 1.34232Z" fill="#0AAA4A"/>
<path d="M2.70312 14.8465C2.70312 14.8465 8.91835 21.79 15.2447 15.5378L16.0594 14.8465C16.0594 14.8465 10.7761 9.36574 5.41264 12.6554L2.70312 14.8465Z" fill="#0AAA4A"/>
<path d="M9.38289 9.36587C11.0872 9.36587 12.4689 7.98421 12.4689 6.27986C12.4689 4.5755 11.0872 3.19385 9.38289 3.19385C7.67853 3.19385 6.29688 4.5755 6.29688 6.27986C6.29688 7.98421 7.67853 9.36587 9.38289 9.36587Z" fill="#0AAA4A"/>
</svg>
