<svg width="16" height="20" viewBox="0 0 16 20" fill="none" xmlns="http://www.w3.org/2000/svg">
<path d="M7.71631 9.79464C8.94023 9.79464 10 9.35567 10.866 8.48958C11.7319 7.62364 12.1709 6.56411 12.1709 5.34005C12.1709 4.11641 11.7319 3.05674 10.8658 2.19051C9.99976 1.32471 8.94008 0.885742 7.71631 0.885742C6.49225 0.885742 5.43271 1.32471 4.56677 2.19065C3.70083 3.0566 3.26172 4.11627 3.26172 5.34005C3.26172 6.56411 3.70083 7.62378 4.56691 8.48973C5.433 9.35553 6.49267 9.79464 7.71631 9.79464Z" fill="#0AAA4A"/>
<path d="M15.5099 15.1071C15.4849 14.7468 15.4344 14.3536 15.36 13.9385C15.2849 13.5203 15.1883 13.1249 15.0726 12.7636C14.9531 12.3901 14.7905 12.0212 14.5896 11.6678C14.381 11.3009 14.1361 10.9815 13.8612 10.7186C13.5738 10.4436 13.2219 10.2225 12.8149 10.0612C12.4094 9.90075 11.96 9.81948 11.4793 9.81948C11.2905 9.81948 11.1079 9.89694 10.7553 10.1265C10.5383 10.268 10.2844 10.4317 10.0011 10.6128C9.75882 10.7671 9.43062 10.9117 9.02524 11.0427C8.62973 11.1707 8.22815 11.2356 7.83179 11.2356C7.43544 11.2356 7.034 11.1707 6.63807 11.0427C6.23311 10.9119 5.90491 10.7673 5.66292 10.6129C5.38227 10.4336 5.12828 10.2699 4.90802 10.1264C4.55583 9.8968 4.3731 9.81934 4.18431 9.81934C3.70343 9.81934 3.25417 9.90075 2.84878 10.0613C2.44212 10.2223 2.09007 10.4434 1.80237 10.7187C1.52764 10.9817 1.28255 11.301 1.07428 11.6678C0.873494 12.0212 0.710944 12.3899 0.59129 12.7637C0.475727 13.1251 0.379073 13.5203 0.304006 13.9385C0.229646 14.3531 0.179131 14.7463 0.154156 15.1076C0.129604 15.4614 0.117188 15.8287 0.117188 16.1997C0.117188 17.1651 0.424084 17.9467 1.02927 18.5231C1.62698 19.0918 2.41785 19.3804 3.37961 19.3804H12.2848C13.2466 19.3804 14.0372 19.092 14.635 18.5231C15.2404 17.9471 15.5472 17.1654 15.5472 16.1995C15.5471 15.8269 15.5345 15.4593 15.5099 15.1071Z" fill="#0AAA4A"/>
</svg>
