<svg width="25" height="25" viewBox="0 0 25 25" fill="none" xmlns="http://www.w3.org/2000/svg">
<g clip-path="url(#clip0_37_23941)">
<path d="M4.625 16.2051C3.80915 16.2051 3.01163 16.447 2.33327 16.9003C1.65492 17.3535 1.12621 17.9978 0.813999 18.7515C0.501787 19.5053 0.420099 20.3347 0.579263 21.1348C0.738427 21.935 1.13129 22.67 1.70819 23.2469C2.28508 23.8238 3.02008 24.2167 3.82025 24.3758C4.62043 24.535 5.44983 24.4533 6.20357 24.1411C6.95732 23.8289 7.60155 23.3002 8.05481 22.6218C8.50807 21.9435 8.75 21.1459 8.75 20.3301C8.74877 19.2364 8.31377 18.1879 7.54045 17.4146C6.76713 16.6413 5.71864 16.2063 4.625 16.2051ZM4.625 23.7051C3.95749 23.7051 3.30497 23.5071 2.74995 23.1363C2.19494 22.7654 1.76235 22.2383 1.50691 21.6216C1.25146 21.0049 1.18463 20.3263 1.31485 19.6716C1.44508 19.017 1.76651 18.4156 2.23852 17.9436C2.71052 17.4716 3.31189 17.1502 3.96657 17.0199C4.62126 16.8897 5.29986 16.9565 5.91656 17.212C6.53326 17.4674 7.06036 17.9 7.43121 18.455C7.80206 19.01 8 19.6626 8 20.3301C7.99896 21.2249 7.64305 22.0827 7.01034 22.7154C6.37763 23.3481 5.51979 23.704 4.625 23.7051Z" fill="white"/>
<path d="M5.27886 18.9976C5.33421 19.0499 5.36826 19.1208 5.37444 19.1967C5.37215 19.2945 5.40817 19.3893 5.4748 19.4609C5.54143 19.5325 5.63342 19.5753 5.73113 19.5801C5.82968 19.5818 5.92519 19.5459 5.99818 19.4797C6.07116 19.4134 6.11613 19.3218 6.12389 19.2236C6.12581 18.9466 6.01805 18.68 5.82415 18.4822C5.5999 18.2666 5.30932 18.1331 4.99962 18.1034V18.0801C4.99962 17.9806 4.96012 17.8852 4.88979 17.8149C4.81946 17.7446 4.72408 17.7051 4.62462 17.7051C4.52517 17.7051 4.42979 17.7446 4.35946 17.8149C4.28913 17.8852 4.24962 17.9806 4.24962 18.0801V18.1119C3.93861 18.1525 3.65299 18.3049 3.44605 18.5406C3.23911 18.7763 3.125 19.0792 3.125 19.3929C3.125 19.7066 3.23911 20.0095 3.44605 20.2452C3.65299 20.4809 3.93861 20.6333 4.24962 20.6739V21.7951C4.14643 21.7765 4.05006 21.7307 3.97039 21.6625C3.91746 21.6122 3.88361 21.5451 3.87462 21.4727C3.87877 21.3737 3.8436 21.2773 3.77679 21.2042C3.70997 21.131 3.61695 21.0873 3.51801 21.0825C3.41907 21.0777 3.32226 21.1123 3.2487 21.1786C3.17514 21.2449 3.13081 21.3377 3.12537 21.4366C3.12346 21.7136 3.23122 21.9801 3.42512 22.178C3.64934 22.3937 3.93992 22.5272 4.24962 22.5568V22.5801C4.24962 22.6795 4.28913 22.7749 4.35946 22.8452C4.42979 22.9156 4.52517 22.9551 4.62462 22.9551C4.72408 22.9551 4.81946 22.9156 4.88979 22.8452C4.96012 22.7749 4.99962 22.6795 4.99962 22.5801V22.5482C5.31064 22.5076 5.59626 22.3553 5.8032 22.1196C6.01014 21.8839 6.12425 21.5809 6.12425 21.2673C6.12425 20.9536 6.01014 20.6507 5.8032 20.415C5.59626 20.1792 5.31064 20.0269 4.99962 19.9863V18.8654C5.10279 18.8839 5.19918 18.9295 5.27886 18.9976ZM3.875 19.3928C3.87495 19.279 3.91128 19.1683 3.97869 19.0767C4.04609 18.9851 4.14103 18.9174 4.24962 18.8837V19.9021C4.14104 19.8682 4.04613 19.8005 3.97874 19.7089C3.91134 19.6173 3.875 19.5065 3.875 19.3928ZM5.37425 21.2674C5.3743 21.3811 5.33797 21.4919 5.27057 21.5835C5.20316 21.6751 5.10822 21.7427 4.99962 21.7765V20.7581C5.10821 20.792 5.20312 20.8596 5.27051 20.9513C5.33791 21.0429 5.37425 21.1536 5.37425 21.2674Z" fill="white"/>
<path d="M24.1256 21.8301H22.2506V6.08008C22.2506 6.03083 22.2409 5.98206 22.2221 5.93656C22.2033 5.89105 22.1756 5.84971 22.1408 5.81488C22.106 5.78006 22.0647 5.75244 22.0191 5.7336C21.9736 5.71476 21.9249 5.70507 21.8756 5.70508H18.8756C18.8264 5.70507 18.7776 5.71476 18.7321 5.7336C18.6866 5.75244 18.6453 5.78006 18.6104 5.81488C18.5756 5.84971 18.548 5.89105 18.5291 5.93656C18.5103 5.98206 18.5006 6.03083 18.5006 6.08008V21.8301H17.0006V8.33008C17.0006 8.28083 16.9909 8.23206 16.9721 8.18656C16.9533 8.14105 16.9256 8.09971 16.8908 8.06488C16.856 8.03006 16.8146 8.00244 16.7691 7.9836C16.7236 7.96476 16.6749 7.95507 16.6256 7.95508H13.6256C13.5764 7.95507 13.5276 7.96476 13.4821 7.9836C13.4366 8.00244 13.3953 8.03006 13.3604 8.06488C13.3256 8.09971 13.298 8.14105 13.2791 8.18656C13.2603 8.23206 13.2506 8.28083 13.2506 8.33008V21.8301H11.7506V10.5801C11.7506 10.4806 11.7111 10.3852 11.6408 10.3149C11.5705 10.2446 11.4751 10.2051 11.3756 10.2051H8.37562C8.27617 10.2051 8.18079 10.2446 8.11046 10.3149C8.04013 10.3852 8.00062 10.4806 8.00062 10.5801V16.6588C8.00062 16.7583 8.04013 16.8537 8.11046 16.924C8.18079 16.9943 8.27617 17.0338 8.37562 17.0338C8.47508 17.0338 8.57046 16.9943 8.64079 16.924C8.71112 16.8537 8.75062 16.7583 8.75062 16.6588V10.9551H11.0006V21.8301H9.52681C9.42735 21.8301 9.33197 21.8696 9.26164 21.9399C9.19132 22.0102 9.15181 22.1056 9.15181 22.2051C9.15181 22.3045 9.19132 22.3999 9.26164 22.4702C9.33197 22.5406 9.42735 22.5801 9.52681 22.5801H23.7506V23.7051H8.29688C8.19742 23.7051 8.10204 23.7446 8.03171 23.8149C7.96138 23.8852 7.92188 23.9806 7.92188 24.0801C7.92188 24.1795 7.96138 24.2749 8.03171 24.3452C8.10204 24.4156 8.19742 24.4551 8.29688 24.4551H24.1256C24.1749 24.4551 24.2236 24.4454 24.2691 24.4266C24.3147 24.4077 24.356 24.3801 24.3908 24.3453C24.4256 24.3104 24.4533 24.2691 24.4721 24.2236C24.4909 24.1781 24.5006 24.1293 24.5006 24.0801V22.2051C24.5006 22.1558 24.4909 22.1071 24.4721 22.0616C24.4533 22.0161 24.4256 21.9747 24.3908 21.9399C24.356 21.9051 24.3147 21.8774 24.2691 21.8586C24.2236 21.8398 24.1749 21.8301 24.1256 21.8301ZM19.2506 6.45508H21.5006V21.8301H19.2506V6.45508ZM14.0006 8.70508H16.2506V21.8301H14.0006V8.70508Z" fill="white"/>
<path d="M3.125 15.6726C3.22445 15.6726 3.31983 15.6331 3.39016 15.5628C3.46048 15.4924 3.5 15.3971 3.5 15.2976V12.8301H5.75V15.2976C5.75 15.3971 5.78951 15.4924 5.85984 15.5628C5.93016 15.6331 6.02554 15.6726 6.125 15.6726C6.22446 15.6726 6.31984 15.6331 6.39016 15.5628C6.46049 15.4924 6.5 15.3971 6.5 15.2976V12.4551C6.5 12.3556 6.46049 12.2602 6.39016 12.1899C6.31984 12.1196 6.22446 12.0801 6.125 12.0801H3.125C3.02554 12.0801 2.93016 12.1196 2.85984 12.1899C2.78951 12.2602 2.75 12.3556 2.75 12.4551V15.2976C2.75 15.3971 2.78952 15.4924 2.85984 15.5628C2.93017 15.6331 3.02555 15.6726 3.125 15.6726Z" fill="white"/>
<path d="M4.62452 9.83008L4.64264 9.8297C11.3626 9.5096 17.9446 3.70737 19.9999 1.7316V4.20508C19.9999 4.30453 20.0394 4.39992 20.1097 4.47024C20.1801 4.54057 20.2754 4.58008 20.3749 4.58008C20.4743 4.58008 20.5697 4.54057 20.6401 4.47024C20.7104 4.39992 20.7499 4.30453 20.7499 4.20508V0.830078L20.749 0.825728C20.7456 0.727904 20.705 0.635064 20.6355 0.566175C20.566 0.497286 20.4727 0.457548 20.3749 0.455078L16.9999 0.455078C16.9004 0.455078 16.8051 0.494587 16.7347 0.564913C16.6644 0.635239 16.6249 0.730622 16.6249 0.830078C16.6249 0.929534 16.6644 1.02492 16.7347 1.09524C16.8051 1.16557 16.9004 1.20508 16.9999 1.20508H19.4576C17.4368 3.12467 10.9699 8.77757 4.60713 9.08045C4.50937 9.08512 4.41731 9.12782 4.35061 9.19944C4.2839 9.27105 4.24783 9.3659 4.2501 9.46375C4.25237 9.56159 4.2928 9.65467 4.36275 9.72311C4.43271 9.79156 4.52665 9.82995 4.62452 9.83008Z" fill="white"/>
</g>
<defs>
<clipPath id="clip0_37_23941">
<rect width="24" height="24" fill="white" transform="translate(0.5 0.455078)"/>
</clipPath>
</defs>
</svg>
