<svg width="17" height="21" viewBox="0 0 17 21" fill="none" xmlns="http://www.w3.org/2000/svg">
<path d="M15.9822 16.4772L11.6356 7.98573V1.42374H12.2266C12.5595 1.42374 12.8293 1.15387 12.8293 0.820998C12.8293 0.488127 12.5595 0.218262 12.2266 0.218262H4.58027C4.24739 0.218262 3.97753 0.488127 3.97753 0.820998C3.97753 1.15387 4.24739 1.42374 4.58027 1.42374H5.17123V7.98573L0.824653 16.4772C0.35054 17.4034 0.391607 18.4863 0.934432 19.374C1.47726 20.2617 2.42251 20.7917 3.46303 20.7917H13.3438C14.3843 20.7917 15.3296 20.2617 15.8724 19.374C16.4153 18.4863 16.4563 17.4034 15.9822 16.4772ZM6.31052 8.40568C6.35404 8.32065 6.3767 8.22654 6.3767 8.13103V1.42374H10.4301V8.13103C10.4301 8.2265 10.4528 8.32065 10.4963 8.40568L12.1734 11.6821H4.63339L6.31052 8.40568ZM13.3438 19.5862H3.46303C2.84575 19.5862 2.28492 19.2718 1.96286 18.7451C1.78168 18.4489 1.69472 18.116 1.70336 17.7836C1.70818 17.599 1.7425 17.4145 1.80655 17.2365C1.83219 17.1653 4.01631 12.8876 4.01631 12.8876H12.7905C12.7905 12.8876 14.9431 17.0955 14.9583 17.1305C15.0495 17.3406 15.0977 17.562 15.1035 17.7836C15.1121 18.116 15.0252 18.4489 14.844 18.7451C14.522 19.2718 13.9611 19.5862 13.3438 19.5862Z" fill="#0AAA4A"/>
</svg>
