<svg width="17" height="22" viewBox="0 0 17 22" fill="none" xmlns="http://www.w3.org/2000/svg">
<path d="M15.9822 16.8641L11.6356 8.37269V1.8107H12.2266C12.5595 1.8107 12.8293 1.54083 12.8293 1.20796C12.8293 0.87509 12.5595 0.605225 12.2266 0.605225H4.58027C4.24739 0.605225 3.97753 0.87509 3.97753 1.20796C3.97753 1.54083 4.24739 1.8107 4.58027 1.8107H5.17123V8.37269L0.824653 16.8642C0.35054 17.7904 0.391607 18.8733 0.934432 19.761C1.47726 20.6487 2.42251 21.1786 3.46303 21.1786H13.3438C14.3843 21.1786 15.3296 20.6487 15.8724 19.761C16.4153 18.8733 16.4563 17.7904 15.9822 16.8641ZM6.31052 8.79264C6.35404 8.70761 6.3767 8.61351 6.3767 8.51799V1.8107H10.4301V8.51799C10.4301 8.61347 10.4528 8.70761 10.4963 8.79264L12.1734 12.0691H4.63339L6.31052 8.79264ZM13.3438 19.9732H3.46303C2.84575 19.9732 2.28492 19.6587 1.96286 19.1321C1.78168 18.8358 1.69472 18.503 1.70336 18.1706C1.70818 17.9859 1.7425 17.8014 1.80655 17.6235C1.83219 17.5523 4.01631 13.2746 4.01631 13.2746H12.7905C12.7905 13.2746 14.9431 17.4825 14.9583 17.5175C15.0495 17.7276 15.0977 17.949 15.1035 18.1706C15.1121 18.503 15.0252 18.8358 14.844 19.1321C14.522 19.6587 13.9611 19.9732 13.3438 19.9732Z" fill="white"/>
</svg>
