<svg width="17" height="17" viewBox="0 0 17 17" fill="none" xmlns="http://www.w3.org/2000/svg">
<path d="M7.92969 0.486084H9.30469V8.73608H7.92969V0.486084ZM5.86719 0.95874V2.46265C4.63542 2.97827 3.63281 3.809 2.85938 4.95483C2.11458 6.10067 1.74219 7.36108 1.74219 8.73608C1.74219 10.6267 2.41536 12.2452 3.76172 13.5916C5.10807 14.9379 6.72656 15.6111 8.61719 15.6111C10.5078 15.6111 12.1263 14.9379 13.4727 13.5916C14.819 12.2452 15.4922 10.6267 15.4922 8.73608C15.4922 7.36108 15.1055 6.10067 14.332 4.95483C13.5872 3.809 12.599 2.97827 11.3672 2.46265V0.95874C13 1.53166 14.3177 2.53426 15.3203 3.96655C16.3516 5.3702 16.8672 6.96004 16.8672 8.73608C16.8672 10.9991 16.0508 12.947 14.418 14.5798C12.8138 16.184 10.8802 16.9861 8.61719 16.9861C6.35417 16.9861 4.40625 16.184 2.77344 14.5798C1.16927 12.947 0.367188 10.9991 0.367188 8.73608C0.367188 6.96004 0.86849 5.3702 1.87109 3.96655C2.90234 2.53426 4.23438 1.53166 5.86719 0.95874Z" fill="#0AAA4A"/>
</svg>
