<svg width="26" height="26" viewBox="0 0 26 26" fill="none" xmlns="http://www.w3.org/2000/svg">
<g clip-path="url(#clip0_2826_5552)">
<path d="M18.5169 12.682H13.7169V7.88198C13.7169 7.58743 13.4781 7.34863 13.1836 7.34863C12.889 7.34863 12.6502 7.58743 12.6502 7.88198V12.682H7.85024C6.37749 12.682 5.18359 13.8759 5.18359 15.3486V18.5486C5.18359 18.8432 5.42239 19.082 5.71694 19.082C6.01149 19.082 6.25029 18.8432 6.25029 18.5486V15.3486C6.25029 14.465 6.96664 13.7486 7.85029 13.7486H18.5169C19.4006 13.7486 20.1169 14.465 20.1169 15.3486V18.5486C20.1169 18.8432 20.3557 19.082 20.6503 19.082C20.9448 19.082 21.1836 18.8432 21.1836 18.5486V15.3486C21.1836 13.8759 19.9897 12.682 18.5169 12.682Z" fill="#546E7A"/>
<path d="M13.1835 8.41494C15.2454 8.41494 16.9169 6.74346 16.9169 4.68159C16.9169 2.61972 15.2454 0.948242 13.1835 0.948242C11.1217 0.948242 9.4502 2.61972 9.4502 4.68159C9.4502 6.74346 11.1217 8.41494 13.1835 8.41494Z" fill="#FFC107"/>
<path d="M5.71675 25.4813C7.77862 25.4813 9.45009 23.8099 9.45009 21.748C9.45009 19.6861 7.77862 18.0146 5.71675 18.0146C3.65488 18.0146 1.9834 19.6861 1.9834 21.748C1.9834 23.8099 3.65488 25.4813 5.71675 25.4813Z" fill="#4CAF50"/>
<path d="M20.6499 25.4813C22.7117 25.4813 24.3832 23.8099 24.3832 21.748C24.3832 19.6861 22.7117 18.0146 20.6499 18.0146C18.588 18.0146 16.9165 19.6861 16.9165 21.748C16.9165 23.8099 18.588 25.4813 20.6499 25.4813Z" fill="#4CAF50"/>
<path d="M13.1837 13.7486C12.8892 13.7486 12.6504 13.5098 12.6504 13.2153V7.88198C12.6504 7.58743 12.8892 7.34863 13.1837 7.34863C13.4783 7.34863 13.7171 7.58743 13.7171 7.88198V13.2153C13.7171 13.5098 13.4783 13.7486 13.1837 13.7486Z" fill="black"/>
<path d="M20.6503 19.0816C20.3557 19.0816 20.1169 18.8428 20.1169 18.5483V15.3483C20.1169 14.4646 19.4006 13.7483 18.5169 13.7483H7.85029C6.96664 13.7483 6.25029 14.4646 6.25029 15.3483V18.5483C6.25029 18.8428 6.01149 19.0816 5.71694 19.0816C5.42239 19.0816 5.18359 18.8428 5.18359 18.5483V15.3483C5.18359 13.8755 6.37749 12.6816 7.85024 12.6816H18.5169C19.9897 12.6816 21.1836 13.8755 21.1836 15.3483V18.5483C21.1836 18.8428 20.9448 19.0816 20.6503 19.0816Z" fill="black"/>
<path d="M13.1835 8.41489C11.1217 8.41489 9.4502 6.74344 9.4502 4.68154C9.4502 2.61964 11.1217 0.948242 13.1835 0.948242C15.2454 0.948242 16.9169 2.61969 16.9169 4.68159C16.9169 6.74349 15.2454 8.41489 13.1835 8.41489ZM13.1835 2.01489C11.7108 2.01489 10.5169 3.20879 10.5169 4.68159C10.5169 6.15439 11.7108 7.34824 13.1835 7.34824C14.6563 7.34824 15.8502 6.15434 15.8502 4.68159C15.8502 3.20884 14.6563 2.01489 13.1835 2.01489Z" fill="black"/>
<path d="M5.71675 25.4813C3.6549 25.4813 1.9834 23.8099 1.9834 21.748C1.9834 19.6861 3.6549 18.0146 5.71675 18.0146C7.77859 18.0146 9.45009 19.6861 9.45009 21.748C9.45009 23.8099 7.77859 25.4813 5.71675 25.4813ZM5.71675 19.0813C4.244 19.0813 3.0501 20.2752 3.0501 21.748C3.0501 23.2207 4.244 24.4146 5.71675 24.4146C7.1895 24.4146 8.38339 23.2207 8.38339 21.748C8.38339 20.2752 7.1895 19.0813 5.71675 19.0813Z" fill="black"/>
<path d="M20.6503 25.4813C18.5884 25.4813 16.917 23.8098 16.917 21.748C16.917 19.6861 18.5884 18.0146 20.6503 18.0146C22.7122 18.0146 24.3837 19.6861 24.3837 21.748C24.3837 23.8099 22.7122 25.4813 20.6503 25.4813ZM20.6503 19.0813C19.1776 19.0813 17.9837 20.2752 17.9837 21.748C17.9837 23.2207 19.1776 24.4146 20.6503 24.4146C22.1231 24.4146 23.317 23.2207 23.317 21.748C23.317 20.2752 22.1231 19.0813 20.6503 19.0813Z" fill="black"/>
</g>
<defs>
<clipPath id="clip0_2826_5552">
<rect width="24.5333" height="24.5333" fill="white" transform="translate(0.916992 0.948242)"/>
</clipPath>
</defs>
</svg>
