<svg width="25" height="26" viewBox="0 0 25 26" fill="none" xmlns="http://www.w3.org/2000/svg">
<path d="M22.7023 19.2241C23.6546 17.5275 24.1984 15.5707 24.1984 13.4867C24.1984 7.00305 18.9424 1.74707 12.4588 1.74707C5.97522 1.74707 0.719238 7.00305 0.719238 13.4867C0.719238 15.5707 1.263 17.5275 2.21534 19.2241H22.7023Z" fill="#F5585C" fill-opacity="0.22"/>
<path d="M16.9854 12.9916H16.5412V11.562C17.5737 11.5587 18.4176 10.713 18.4176 9.67967V6.0036C18.4176 4.96821 17.5705 4.12109 16.5351 4.12109H8.38306C7.34768 4.12109 6.50056 4.96821 6.50056 6.0036V9.67967C6.50056 10.713 7.34437 11.5587 8.37693 11.562V12.9916H7.93274C5.01375 12.9916 2.62549 15.3798 2.62549 18.2988V19.2235H22.2926V18.2988C22.2926 15.3798 19.9044 12.9916 16.9854 12.9916ZM15.4044 12.9916H9.51365V11.5622H15.4044V12.9916Z" fill="#0AAA4A" fill-opacity="0.36"/>
<path d="M22.7557 19.1277C22.2841 17.8352 21.3277 16.6429 19.4163 16.4866C19.0947 16.4603 18.9237 16.3355 18.5447 16.1219C17.6006 15.5895 16.6336 15.1927 15.5772 14.9489C15.4284 14.8 15.314 14.6098 15.2261 14.3994L12.4586 16.9363L9.65531 14.4794C9.57725 14.6479 9.48084 14.8009 9.3612 14.9266C9.35415 14.934 9.3473 14.9417 9.34007 14.9489C8.28139 15.1932 7.31908 15.5883 6.37263 16.1219C5.99366 16.3356 5.8226 16.4604 5.50103 16.4867C3.58959 16.6429 2.63326 17.8352 2.16162 19.1277C4.15702 22.7619 8.01996 25.2257 12.4587 25.2257C16.8974 25.2257 20.7603 22.7619 22.7557 19.1277Z" fill="#6393E4"/>
<path d="M14.9506 12.9121C14.6988 13.2053 14.4347 13.4505 14.1823 13.6465C13.6905 14.0284 13.0836 14.2359 12.4586 14.2359C11.8336 14.2359 11.2267 14.0284 10.7349 13.6465C10.4825 13.4505 10.2183 13.2053 9.96664 12.9121C9.95054 13.3799 9.8801 13.9939 9.65527 14.479L12.4586 16.936L15.226 14.3991C15.0291 13.9278 14.9658 13.3544 14.9506 12.9121Z" fill="#F9BD91"/>
<path d="M9.96664 12.9121C9.95054 13.3799 9.8801 13.9939 9.65527 14.479L11.3456 15.9605L11.5988 14.101C11.2882 14.0015 10.9954 13.8487 10.7349 13.6465C10.4826 13.4505 10.2183 13.2053 9.96664 12.9121Z" fill="#E5A876"/>
<path d="M2.16162 19.1275C2.63964 19.9981 3.22494 20.8013 3.89956 21.5198C4.00085 18.6454 5.12354 17.013 5.56529 16.4795C5.54444 16.4822 5.52317 16.4846 5.50103 16.4864C3.58963 16.6426 2.63326 17.8349 2.16162 19.1275Z" fill="#5D80D3"/>
<path d="M8.39847 7.24414L8.39746 7.24515L8.39847 7.24414Z" fill="#494970"/>
<path d="M11.6093 0.745676C9.04174 1.09552 8.7977 2.55122 8.79655 3.0853C8.79631 3.19728 8.73426 3.30112 8.63354 3.35009C7.298 3.99979 8.01805 7.13105 8.01805 7.13105C8.15217 7.14001 8.29256 7.1943 8.39726 7.24504C8.42289 7.08548 8.46477 6.92841 8.52386 6.77656C8.5689 6.66084 8.6252 6.54398 8.69559 6.43353C8.81773 6.24191 8.87336 6.01589 8.85678 5.78991C8.80877 5.13666 8.83191 3.84948 9.69417 3.4615C10.4247 3.13279 11.3208 3.32311 11.8922 3.51315C12.2633 3.63658 12.6652 3.63658 13.0364 3.51315C13.6078 3.32311 14.5039 3.13279 15.2343 3.4615C16.0942 3.84838 16.1196 5.12933 16.0722 5.7843C16.0556 6.012 16.1098 6.24038 16.2329 6.43348C16.3055 6.54747 16.3632 6.66832 16.409 6.78768C16.4659 6.93608 16.5063 7.08936 16.5313 7.245C16.6633 7.18108 16.8519 7.1114 17.0133 7.13421C17.033 6.44953 17.0962 5.71142 17.0962 5.71142C17.8571 1.98494 14.3738 0.369051 11.6093 0.745676Z" fill="#494970"/>
<path d="M8.39847 7.24512L8.39746 7.24612L8.39847 7.24512Z" fill="#3A3A60"/>
<path d="M11.9148 0.712891C11.8122 0.721324 11.7102 0.732105 11.6093 0.745857C9.04174 1.0957 8.7977 2.55141 8.79655 3.08548C8.79631 3.19747 8.73426 3.3013 8.63354 3.35027C7.298 3.99997 8.01805 7.13123 8.01805 7.13123C8.15217 7.14019 8.29256 7.19448 8.39726 7.24523C8.52572 6.44564 8.90048 6.38503 8.85678 5.79009C8.80877 5.13685 8.83191 3.84966 9.69417 3.46168C10.3341 3.17375 11.1009 3.2841 11.6654 3.44361C10.6822 2.73473 10.8191 1.23164 11.9148 0.712891Z" fill="#3A3A60"/>
<path d="M17.3019 7.223C17.102 7.03972 16.7036 7.13263 16.5314 7.24485C16.5691 7.47983 16.5712 7.72018 16.5387 7.95756L16.3354 9.43785C16.3354 9.55716 16.3316 9.67422 16.3247 9.78927C16.8203 9.93877 17.0665 9.49382 17.108 9.18849C17.1258 9.05706 17.155 8.92749 17.1954 8.80109C17.3274 8.38939 17.8029 7.68218 17.3019 7.223Z" fill="#F9BD91"/>
<path d="M17.298 7.223C17.0945 7.03972 16.6892 7.13263 16.514 7.24485C16.5524 7.47983 16.5546 7.72018 16.5214 7.95756L16.3146 9.43785C16.3146 9.55716 16.3108 9.67422 16.3037 9.78927C16.808 9.93877 17.0584 9.49382 17.1007 9.18849C17.1188 9.05706 17.1485 8.92749 17.1897 8.80109C17.3239 8.38939 17.8078 7.68218 17.298 7.223Z" fill="#F9BD91"/>
<path d="M16.4227 8.66421L16.3146 9.43849C16.3146 9.5578 16.3108 9.67486 16.3037 9.78991C16.808 9.93941 17.0584 9.49446 17.1007 9.18913C17.1397 8.90652 17.2112 8.73292 17.2795 8.57422C17.0793 8.85391 16.6776 8.89531 16.4227 8.66421Z" fill="#E5A876"/>
<path d="M7.61993 7.223C7.82338 7.03972 8.22871 7.13263 8.40394 7.24485C8.36556 7.47983 8.36335 7.72018 8.39651 7.95756L8.60332 9.43785C8.60332 9.55716 8.60715 9.67422 8.6142 9.78927C8.10992 9.93877 7.85946 9.49382 7.81725 9.18849C7.79909 9.05706 7.76938 8.92749 7.72822 8.80109C7.59405 8.38939 7.11014 7.68218 7.61993 7.223Z" fill="#F9BD91"/>
<path d="M8.49547 8.66421L8.60362 9.43849C8.60362 9.5578 8.60745 9.67486 8.61449 9.78991C8.11022 9.93941 7.85976 9.49446 7.81754 9.18913C7.77849 8.90652 7.70705 8.73292 7.63867 8.57422C7.83892 8.85391 8.24065 8.89531 8.49547 8.66421Z" fill="#E5A876"/>
<path d="M16.4086 6.77034C16.3628 6.65074 16.305 6.52961 16.2322 6.41533C16.1088 6.22179 16.0546 5.99294 16.0711 5.76471C16.1186 5.1083 16.0932 3.82447 15.2315 3.43678C14.4994 3.10735 13.6014 3.29811 13.0288 3.48853C12.6569 3.6122 12.2538 3.6122 11.8819 3.48853C11.3093 3.29811 10.4112 3.1074 9.67922 3.43678C8.81509 3.82562 8.7919 5.11568 8.84001 5.77037C8.85664 5.99687 8.80091 6.22337 8.67848 6.41542C8.60795 6.52611 8.55151 6.64327 8.50637 6.75918C8.35993 7.13532 8.31729 7.54324 8.37211 7.94267L8.57585 9.42655C8.57585 11.5599 9.71459 13.0099 10.6832 13.7621C11.1888 14.1547 11.8128 14.368 12.4554 14.368C13.098 14.368 13.7219 14.1547 14.2275 13.7621C15.1962 13.0099 16.3349 11.5599 16.3349 9.42655L16.5386 7.94301C16.5928 7.5475 16.5517 7.14356 16.4086 6.77034Z" fill="#FCD2AE"/>
<path d="M12.1563 13.763C11.4304 13.0108 10.5771 11.5608 10.5771 9.42749L10.4244 7.9436C10.3833 7.54417 10.4153 7.13626 10.525 6.76011C10.5589 6.64415 10.6011 6.52699 10.654 6.41636C10.7458 6.22431 10.7875 5.99776 10.7751 5.7713C10.739 5.11662 10.7564 3.82656 11.404 3.43771C11.4389 3.41677 11.4742 3.39799 11.51 3.38112C10.9624 3.24422 10.2674 3.17307 9.67922 3.43771C8.8151 3.82656 8.7919 5.11662 8.84001 5.7713C8.85664 5.9978 8.80091 6.22431 8.67848 6.41636C8.60795 6.52704 8.55151 6.6442 8.50637 6.76011C8.35993 7.13626 8.31729 7.54417 8.37211 7.9436L8.57585 9.42749C8.57585 11.5608 9.71459 13.0108 10.6832 13.763C11.1888 14.1556 11.8128 14.3689 12.4553 14.3689C12.6542 14.3689 12.8512 14.3484 13.0436 14.3085C12.7219 14.2196 12.418 14.0341 12.1563 13.763Z" fill="#F9BD91"/>
<path d="M12.4835 16.8694L12.4588 16.892L12.4172 16.8555L11.1426 17.4065L11.5758 17.9861C11.6418 18.0742 11.6891 18.1739 11.7166 18.2791L12.701 17.1651L12.4835 16.8694Z" fill="#5D80D3"/>
<path d="M9.85026 14.2497C9.80014 14.1989 9.72074 14.1916 9.66219 14.2323L8.36082 15.1383C8.2934 15.1853 8.28066 15.2799 8.33332 15.343L10.3755 17.7908C10.55 18 10.8563 18.0392 11.0779 17.8807L12.4588 16.8929L9.85026 14.2497Z" fill="#A0CBF9"/>
<path d="M9.85014 14.2497C9.80002 14.1989 9.72062 14.1916 9.66207 14.2323L8.34877 15.1466C8.28777 15.1891 8.27622 15.2747 8.32385 15.3318L9.50749 16.7506C9.50672 16.7329 9.50615 16.7151 9.50615 16.6971C9.50615 16.0468 10.0333 15.5197 10.6836 15.5197C10.8859 15.5197 11.0762 15.5708 11.2426 15.6607L9.85014 14.2497Z" fill="#82B4F2"/>
<path d="M12.4588 16.8926L11.8258 17.7536C11.7189 17.8991 11.6611 18.075 11.6611 18.2556V21.6194C11.6611 21.7423 11.7608 21.842 11.8837 21.842H12.9516C13.0745 21.842 13.1741 21.7424 13.1741 21.6194V18.5489C13.1741 18.3661 13.2333 18.1881 13.3428 18.0416L13.7761 17.462L12.4588 16.8926Z" fill="#82B4F2"/>
<path d="M15.2554 14.2323C15.1969 14.1916 15.1175 14.1989 15.0674 14.2497L12.459 16.8929L13.8399 17.8807C14.0615 18.0393 14.3678 18.0001 14.5423 17.7909L16.5937 15.3319C16.6413 15.2748 16.6298 15.1891 16.5688 15.1467L15.2554 14.2323Z" fill="#A0CBF9"/>
<path d="M18.4645 21.182L17.9742 21.3911C17.4624 21.6095 16.865 21.3694 16.6466 20.8575L16.5392 20.6057C16.3209 20.0939 16.561 19.4965 17.0728 19.2782L17.5631 19.069C18.0749 18.8506 18.6723 19.0908 18.8907 19.6026L18.9981 19.8544C19.2165 20.3662 18.9764 20.9636 18.4645 21.182Z" fill="#E5A876"/>
<path d="M6.31891 21.182L6.8092 21.3911C7.32099 21.6095 7.91842 21.3694 8.13678 20.8575L8.2442 20.6057C8.46256 20.0939 8.22245 19.4965 7.71061 19.2782L7.22032 19.069C6.70848 18.8506 6.1111 19.0908 5.89274 19.6026L5.78531 19.8544C5.56696 20.3662 5.80707 20.9636 6.31891 21.182Z" fill="#E5A876"/>
<path d="M9.25033 20.9795C10.1675 20.3639 11.2711 20.0046 12.4587 20.0046C13.6652 20.0046 14.7847 20.3756 15.7103 21.0091L16.7434 19.3765C15.5186 18.5542 14.0448 18.0742 12.4587 18.0742C10.8914 18.0742 9.43385 18.5431 8.21777 19.3477L9.25033 20.9795Z" fill="#494970"/>
<path d="M9.5845 19.8696C9.33461 19.4368 9.41804 18.9041 9.7536 18.5654C9.20989 18.7697 8.69502 19.0329 8.21777 19.3487L9.25033 20.9804C9.59619 20.7483 9.96865 20.5527 10.362 20.399C10.0472 20.3513 9.75609 20.1668 9.5845 19.8696Z" fill="#3A3A60"/>
<path d="M16.6676 19.3271L15.6118 20.9436C15.9858 21.1884 16.3298 21.4752 16.6366 21.7977C16.9185 22.094 17.0292 22.5242 16.9024 22.913C16.8715 23.0077 16.8548 23.1088 16.8548 23.2139C16.8548 23.6194 17.1027 23.9652 17.4516 24.1117C17.4522 24.112 17.4528 24.1123 17.4534 24.1125C18.2065 23.758 18.9155 23.3258 19.5706 22.8263C18.9743 21.3883 17.9552 20.1699 16.6676 19.3271Z" fill="#F5585C" fill-opacity="0.22"/>
<path d="M5.34717 22.8263C6.00228 23.3259 6.71136 23.758 7.46437 24.1126C7.4648 24.1124 7.46518 24.1122 7.46561 24.112C7.81492 23.9655 8.06289 23.6193 8.06289 23.2139C8.06289 23.1088 8.04617 23.0077 8.01531 22.913C7.88848 22.5242 7.99926 22.094 8.28111 21.7977C8.58792 21.4752 8.93191 21.1884 9.30585 20.9436L8.25006 19.3271C6.96249 20.1699 5.94344 21.3883 5.34717 22.8263Z" fill="#0AAA4A" fill-opacity="0.36"/>
<path d="M12.459 25.225C13.2683 25.225 14.0583 25.1427 14.8215 24.9867C14.7894 24.6616 14.6896 24.3381 14.5159 24.0373C13.9185 23.0025 12.6548 22.5877 11.5765 23.0201C11.573 23.0215 11.5694 23.0231 11.5659 23.0245C11.5233 23.0419 11.481 23.0607 11.439 23.0807C11.4285 23.0856 11.418 23.0906 11.4075 23.0957C11.3618 23.1184 11.3164 23.142 11.2716 23.1679C10.5981 23.5567 10.1871 24.2277 10.1013 24.9462C10.0997 24.9597 10.0986 24.9733 10.0972 24.9868C10.8601 25.1427 11.65 25.225 12.459 25.225Z" fill="#494970"/>
<path d="M19.0377 19.7566L18.0228 20.1896C17.4733 20.424 17.2155 21.0653 17.4499 21.6148L18.3219 23.6588C19.3098 23.0882 20.2065 22.3778 20.9857 21.5547L20.4629 20.3294C20.2285 19.78 19.5872 19.5222 19.0377 19.7566Z" fill="#FCD2AE"/>
<path d="M18.0228 20.1894C17.4733 20.4238 17.2155 21.0652 17.4499 21.6146L18.3219 23.6586C18.7332 23.4211 19.1286 23.1592 19.5065 22.8752L18.7284 21.0513C18.5392 20.6078 18.652 20.1084 18.9726 19.7842L18.0228 20.1894Z" fill="#F9BD91"/>
<path d="M6.7606 20.1896L5.74568 19.7566C5.19622 19.5222 4.55486 19.78 4.32045 20.3294L3.83984 21.4559C4.61212 22.2907 5.50399 23.0128 6.48844 23.5955L7.3334 21.6148C7.56786 21.0653 7.31011 20.424 6.7606 20.1896Z" fill="#FCD2AE"/>
<path d="M5.74568 19.7566C5.19622 19.5222 4.55486 19.78 4.32045 20.3294L3.83984 21.4559C4.19979 21.845 4.58524 22.2102 4.99449 22.5477L5.65919 20.9896C5.87477 20.4842 6.40358 20.2049 6.92424 20.278C6.87287 20.2446 6.81873 20.2144 6.7606 20.1896L5.74568 19.7566Z" fill="#F9BD91"/>
</svg>
