<svg width="26" height="25" viewBox="0 0 26 25" fill="none" xmlns="http://www.w3.org/2000/svg">
<g clip-path="url(#clip0_2826_5530)">
<path d="M20.6029 3.73633H5.55251C4.51223 3.75038 3.65866 4.56395 3.59473 5.6023V23.1304C3.59473 24.1399 4.54303 24.8435 5.55251 24.8435H20.6029C21.6123 24.8435 22.5606 24.1399 22.5606 23.1304V5.60236C22.4967 4.56395 21.6431 3.75038 20.6029 3.73633Z" fill="#D4E1F4"/>
<path d="M7.90799 16.7982C7.7451 16.8034 7.5883 16.7362 7.47974 16.6146L6.22557 15.3298C5.98861 15.0816 5.98861 14.691 6.22557 14.4427C6.47172 14.2178 6.8526 14.2314 7.08212 14.4733L7.90804 15.3298L9.86583 13.4639C10.112 13.239 10.4929 13.2525 10.7224 13.4944C10.9593 13.7427 10.9593 14.1333 10.7224 14.3815L8.33635 16.6146C8.22329 16.7299 8.06935 16.7959 7.90799 16.7982Z" fill="#00BB64"/>
<path d="M19.5015 16.0332H12.4658C12.1279 16.0332 11.854 15.7593 11.854 15.4214C11.854 15.0835 12.1279 14.8096 12.4658 14.8096H19.5015C19.8394 14.8096 20.1133 15.0835 20.1133 15.4214C20.1133 15.7593 19.8394 16.0332 19.5015 16.0332Z" fill="#083863"/>
<path d="M7.90799 11.9037C7.7451 11.9089 7.5883 11.8416 7.47974 11.7201L6.22557 10.4353C5.98861 10.187 5.98861 9.79645 6.22557 9.54819C6.47172 9.3233 6.8526 9.33688 7.08212 9.57876L7.90804 10.4353L9.86583 8.56933C10.112 8.34443 10.4929 8.35802 10.7224 8.59989C10.9593 8.84815 10.9593 9.23875 10.7224 9.487L8.33635 11.7201C8.22329 11.8354 8.06935 11.9014 7.90799 11.9037Z" fill="#00BB64"/>
<path d="M19.5015 11.1386H12.4658C12.1279 11.1386 11.854 10.8647 11.854 10.5268C11.854 10.1889 12.1279 9.91504 12.4658 9.91504H19.5015C19.8394 9.91504 20.1133 10.1889 20.1133 10.5268C20.1133 10.8647 19.8394 11.1386 19.5015 11.1386Z" fill="#083863"/>
<path d="M7.90799 21.6927C7.7451 21.6979 7.5883 21.6307 7.47974 21.5092L6.22557 20.2244C5.98861 19.9761 5.98861 19.5855 6.22557 19.3373C6.47172 19.1124 6.8526 19.1259 7.08212 19.3678L7.90804 20.2244L9.86583 18.3584C10.112 18.1335 10.4929 18.1471 10.7224 18.389C10.9593 18.6372 10.9593 19.0278 10.7224 19.2761L8.33635 21.5092C8.22329 21.6244 8.06935 21.6904 7.90799 21.6927Z" fill="#00BB64"/>
<path d="M19.5015 20.9277H12.4658C12.1279 20.9277 11.854 20.6538 11.854 20.3159C11.854 19.978 12.1279 19.7041 12.4658 19.7041H19.5015C19.8394 19.7041 20.1133 19.978 20.1133 20.3159C20.1133 20.6537 19.8394 20.9277 19.5015 20.9277Z" fill="#083863"/>
<path d="M17.5744 3.82849V5.96977H8.55029V2.14601H10.7834C11.0133 1.0785 11.9551 0.314876 13.047 0.310602C14.1432 0.303049 15.0915 1.072 15.3107 2.14601H17.5744V3.82849H17.5744Z" fill="#00CEB4"/>
</g>
<defs>
<clipPath id="clip0_2826_5530">
<rect width="24.5333" height="24.5333" fill="white" transform="translate(0.811035 0.310547)"/>
</clipPath>
</defs>
</svg>
