<svg width="21" height="21" viewBox="0 0 21 21" fill="none" xmlns="http://www.w3.org/2000/svg">
<g clip-path="url(#clip0_2826_5632)">
<path d="M16.4592 8.22937C18.7282 8.22937 20.5739 6.38365 20.5739 4.11468C20.5739 1.84571 18.7282 0 16.4592 0C14.8116 0 13.391 0.975596 12.7345 2.37763L11.6326 1.97095C11.6457 1.88657 11.6588 1.80218 11.6588 1.71445C11.6588 0.769159 10.8896 0 9.94431 0C8.99901 0 8.22985 0.769159 8.22985 1.71445C8.22985 2.65974 8.99901 3.4289 9.94431 3.4289C10.5584 3.4289 11.094 3.10142 11.3967 2.61487L12.4967 3.02088C12.4001 3.36997 12.3445 3.73546 12.3445 4.11468C12.3445 4.56389 12.4192 4.99518 12.553 5.40019L8.78186 6.99844C8.09139 5.69302 6.72084 4.80046 5.14384 4.80046C4.63285 4.80046 4.14531 4.89858 3.69342 5.06935L2.74495 3.07613C3.15816 2.76271 3.42939 2.27165 3.42939 1.71445C3.42939 0.769159 2.66023 0 1.71494 0C0.769647 0 0.000488281 0.769159 0.000488281 1.71445C0.000488281 2.65974 0.769647 3.4289 1.71494 3.4289C1.85759 3.4289 1.99437 3.4063 2.12714 3.37298L3.07445 5.36419C1.8534 6.07877 1.02916 7.40094 1.02916 8.91515C1.02916 10.3374 1.75479 11.5928 2.85478 12.332L2.2276 13.4594C2.06436 13.408 1.89459 13.3727 1.71494 13.3727C0.769647 13.3727 0.000488281 14.1419 0.000488281 15.0872C0.000488281 16.0325 0.769647 16.8016 1.71494 16.8016C2.66023 16.8016 3.42939 16.0325 3.42939 15.0872C3.42939 14.568 3.19248 14.1076 2.82699 13.7931L3.45551 12.6633C3.97118 12.8967 4.54177 13.0298 5.14384 13.0298C6.08478 13.0298 6.95021 12.7089 7.64419 12.1753L8.99382 13.66C8.30938 14.3952 7.88696 15.3773 7.88696 16.4587C7.88696 16.6685 7.90789 16.8729 7.93803 17.0742L6.35015 17.4511C6.07691 16.8668 5.4874 16.4587 4.80095 16.4587C3.85566 16.4587 3.0865 17.2279 3.0865 18.1732C3.0865 19.1185 3.85566 19.8876 4.80095 19.8876C5.74624 19.8876 6.5154 19.1185 6.5154 18.1732C6.5154 18.1543 6.51021 18.1365 6.50988 18.1176L8.09474 17.7419C8.63519 19.3838 10.1809 20.5734 12.0016 20.5734C14.2706 20.5734 16.1163 18.7277 16.1163 16.4587C16.1163 15.7552 15.9384 15.0927 15.6256 14.5132L17.6397 13.2036C17.9512 13.5191 18.3825 13.7156 18.8595 13.7156C19.8047 13.7156 20.5739 12.9465 20.5739 12.0012C20.5739 11.0559 19.8047 10.2867 18.8595 10.2867C17.9142 10.2867 17.145 11.0559 17.145 12.0012C17.145 12.2227 17.1905 12.4331 17.2674 12.6277L15.2486 13.9401C14.8446 13.4208 14.32 13.0014 13.7161 12.7229L15.3897 8.08337C15.7312 8.17545 16.0889 8.22937 16.4592 8.22937ZM9.94431 2.74312C9.37723 2.74312 8.91563 2.28153 8.91563 1.71445C8.91563 1.14738 9.37723 0.68578 9.94431 0.68578C10.5114 0.68578 10.973 1.14738 10.973 1.71445C10.973 2.28153 10.5114 2.74312 9.94431 2.74312ZM0.686269 1.71445C0.686269 1.14738 1.14786 0.68578 1.71494 0.68578C2.28201 0.68578 2.74361 1.14738 2.74361 1.71445C2.74361 2.28153 2.28201 2.74312 1.71494 2.74312C1.14786 2.74312 0.686269 2.28153 0.686269 1.71445ZM1.71494 16.1158C1.14786 16.1158 0.686269 15.6542 0.686269 15.0872C0.686269 14.5201 1.14786 14.0585 1.71494 14.0585C2.28201 14.0585 2.74361 14.5201 2.74361 15.0872C2.74361 15.6542 2.28201 16.1158 1.71494 16.1158ZM4.80095 19.2019C4.23388 19.2019 3.77228 18.7403 3.77228 18.1732C3.77228 17.6061 4.23388 17.1445 4.80095 17.1445C5.36803 17.1445 5.82962 17.6061 5.82962 18.1732C5.82962 18.7403 5.36803 19.2019 4.80095 19.2019ZM18.8595 10.9725C19.4265 10.9725 19.8881 11.4341 19.8881 12.0012C19.8881 12.5682 19.4265 13.0298 18.8595 13.0298C18.2924 13.0298 17.8308 12.5682 17.8308 12.0012C17.8308 11.4341 18.2924 10.9725 18.8595 10.9725ZM14.4399 6.87974C14.5929 6.08664 15.2921 5.48624 16.1163 5.48624H16.8021C17.6264 5.48624 18.3255 6.08664 18.4786 6.87974C17.9113 7.29496 17.2146 7.54359 16.4592 7.54359C15.7038 7.54359 15.0071 7.29496 14.4399 6.87974ZM16.4592 4.80046C15.8921 4.80046 15.4305 4.33887 15.4305 3.77179C15.4305 3.20472 15.8921 2.74312 16.4592 2.74312C17.0263 2.74312 17.4879 3.20472 17.4879 3.77179C17.4879 4.33887 17.0263 4.80046 16.4592 4.80046ZM16.4592 0.68578C18.35 0.68578 19.8881 2.22393 19.8881 4.11468C19.8881 4.97191 19.5695 5.75513 19.0473 6.35686C18.807 5.72416 18.3061 5.2192 17.6819 4.9699C17.9855 4.66049 18.1737 4.23808 18.1737 3.77179C18.1737 2.8265 17.4045 2.05734 16.4592 2.05734C15.5139 2.05734 14.7448 2.8265 14.7448 3.77179C14.7448 4.23808 14.933 4.66049 15.2365 4.9699C14.6123 5.2192 14.1114 5.72416 13.8711 6.35686C13.3489 5.75513 13.0303 4.97191 13.0303 4.11468C13.0303 2.22393 14.5685 0.68578 16.4592 0.68578ZM1.71494 8.91515C1.71494 7.02439 3.25309 5.48624 5.14384 5.48624C7.03459 5.48624 8.57274 7.02439 8.57274 8.91515C8.57274 9.77505 8.25212 10.5603 7.72724 11.1629C7.48782 10.5278 6.98587 10.0203 6.36003 9.77036C6.66324 9.46096 6.85143 9.03854 6.85143 8.57226C6.85143 7.62696 6.08227 6.8578 5.13698 6.8578C4.19169 6.8578 3.42253 7.62696 3.42253 8.57226C3.42253 9.03854 3.61071 9.46096 3.91426 9.77036C3.29193 10.0185 2.79166 10.5216 2.55057 11.1518C2.03138 10.5507 1.71494 9.77003 1.71494 8.91515ZM4.10831 8.57226C4.10831 8.00518 4.5699 7.54359 5.13698 7.54359C5.70405 7.54359 6.16565 8.00518 6.16565 8.57226C6.16565 9.13933 5.70405 9.60093 5.13698 9.60093C4.5699 9.60093 4.10831 9.13933 4.10831 8.57226ZM3.11881 11.6757C3.27335 10.8848 3.97152 10.2867 4.79409 10.2867H5.47987C6.30562 10.2867 7.00613 10.8891 7.15698 11.6847C6.59091 12.0974 5.89643 12.344 5.14384 12.344C4.38573 12.344 3.68689 12.0937 3.11881 11.6757ZM9.97662 19.2193C10.1312 18.4283 10.8293 17.8303 11.6519 17.8303H12.3377C13.1634 17.8303 13.8639 18.4327 14.0148 19.2283C13.4487 19.641 12.7542 19.8876 12.0016 19.8876C11.2435 19.8876 10.5447 19.6373 9.97662 19.2193ZM11.9948 17.1445C11.4277 17.1445 10.9661 16.6829 10.9661 16.1158C10.9661 15.5488 11.4277 15.0872 11.9948 15.0872C12.5619 15.0872 13.0235 15.5488 13.0235 16.1158C13.0235 16.6829 12.5619 17.1445 11.9948 17.1445ZM15.4305 16.4587C15.4305 17.3186 15.1099 18.1039 14.585 18.7064C14.3456 18.0714 13.8437 17.5639 13.2178 17.3139C13.521 17.0045 13.7092 16.5821 13.7092 16.1158C13.7092 15.1705 12.9401 14.4014 11.9948 14.4014C11.0495 14.4014 10.2803 15.1705 10.2803 16.1158C10.2803 16.5821 10.4685 17.0045 10.7721 17.3139C10.1497 17.5621 9.64947 18.0652 9.40837 18.6954C8.88918 18.0943 8.57274 17.3136 8.57274 16.4587C8.57274 14.568 10.1109 13.0298 12.0016 13.0298C13.8924 13.0298 15.4305 14.568 15.4305 16.4587ZM13.0712 12.49C12.7296 12.398 12.372 12.344 12.0016 12.344C11.0607 12.344 10.1953 12.665 9.50129 13.1986L8.15167 11.7139C8.83611 10.9787 9.25852 9.99656 9.25852 8.91515C9.25852 8.46594 9.18385 8.03465 9.05008 7.62964L12.8212 6.03139C13.2436 6.83001 13.9215 7.47092 14.7451 7.85048L13.0712 12.49Z" fill="#0AAA4A"/>
</g>
<defs>
<clipPath id="clip0_2826_5632">
<rect width="20.5734" height="20.5734" fill="white" transform="translate(0.000488281)"/>
</clipPath>
</defs>
</svg>
