<svg width="21" height="21" viewBox="0 0 21 21" fill="none" xmlns="http://www.w3.org/2000/svg">
<g clip-path="url(#clip0_694_29541)">
<path d="M16.2992 3.06617H14.4898V2.25672C14.4898 1.99483 14.2041 1.87581 13.9422 1.87581H12.5376C12.2043 0.923497 11.371 0.447342 10.4187 0.447342C9.4769 0.411935 8.62024 0.989436 8.29984 1.87581H6.91899C6.65711 1.87581 6.39522 1.99483 6.39522 2.25672V3.06617H4.5858C3.51355 3.07761 2.63634 3.92347 2.58594 4.99458V18.6364C2.58594 19.6839 3.53825 20.4457 4.5858 20.4457H16.2992C17.3467 20.4457 18.299 19.6839 18.299 18.6364V4.99462C18.2486 3.92347 17.3714 3.07761 16.2992 3.06617ZM7.34748 2.82812H8.65692C8.8855 2.80023 9.0691 2.62633 9.10929 2.39958C9.25028 1.78558 9.78896 1.34483 10.4187 1.32824C11.0427 1.34716 11.5732 1.78927 11.7043 2.39958C11.747 2.63417 11.9427 2.8103 12.1805 2.82812H13.5375V4.73273H7.34748V2.82812ZM17.3467 18.6364C17.3467 19.1602 16.823 19.4935 16.2992 19.4935H4.5858C4.06202 19.4935 3.53825 19.1602 3.53825 18.6364V4.99462C3.58682 4.44943 4.03851 4.0285 4.5858 4.01852H6.39517V5.23272C6.42033 5.49949 6.65137 5.69903 6.91895 5.68509H13.9422C14.2147 5.69999 14.453 5.50318 14.4898 5.23272V4.01848H16.2991C16.8464 4.0285 17.2981 4.44938 17.3467 4.99458V18.6364H17.3467Z" fill="white"/>
<path d="M8.61075 11.0894C8.43216 10.9011 8.13569 10.8905 7.94411 11.0656L6.42041 12.5178L5.77761 11.8512C5.59902 11.6629 5.30254 11.6524 5.11097 11.8274C4.92655 12.0206 4.92655 12.3246 5.11097 12.5178L6.08707 13.5178C6.17155 13.6124 6.29359 13.6647 6.42036 13.6606C6.54595 13.6588 6.66575 13.6075 6.75366 13.5178L8.61065 11.756C8.79476 11.5871 8.80706 11.3009 8.63813 11.1169C8.62947 11.1073 8.62032 11.0981 8.61075 11.0894Z" fill="white"/>
<path d="M15.4441 12.1133H9.96834C9.70536 12.1133 9.49219 12.3265 9.49219 12.5894C9.49219 12.8524 9.70536 13.0656 9.96834 13.0656H15.4441C15.7071 13.0656 15.9203 12.8524 15.9203 12.5894C15.9203 12.3265 15.7071 12.1133 15.4441 12.1133Z" fill="white"/>
<path d="M8.61075 7.28028C8.43216 7.09203 8.13569 7.08142 7.94411 7.25649L6.42041 8.70875L5.77761 8.04211C5.59902 7.85386 5.30254 7.84325 5.11097 8.01832C4.92655 8.21154 4.92655 8.51553 5.11097 8.70875L6.08707 9.70867C6.17155 9.80328 6.29359 9.85559 6.42036 9.85153C6.54595 9.84976 6.66575 9.7984 6.75366 9.70867L8.61065 7.94692C8.79476 7.77804 8.80706 7.49186 8.63813 7.30781C8.62947 7.29819 8.62032 7.28903 8.61075 7.28028Z" fill="white"/>
<path d="M15.4441 8.30371H9.96834C9.70536 8.30371 9.49219 8.51688 9.49219 8.77987C9.49219 9.04285 9.70536 9.25602 9.96834 9.25602H15.4441C15.7071 9.25602 15.9203 9.04285 15.9203 8.77987C15.9203 8.51688 15.7071 8.30371 15.4441 8.30371Z" fill="white"/>
<path d="M8.61075 14.8984C8.43216 14.7102 8.13569 14.6996 7.94411 14.8746L6.42041 16.3269L5.77761 15.6603C5.59902 15.472 5.30254 15.4614 5.11097 15.6365C4.92655 15.8297 4.92655 16.1337 5.11097 16.3269L6.08707 17.3268C6.17155 17.4214 6.29359 17.4737 6.42036 17.4697C6.54595 17.4679 6.66575 17.4165 6.75366 17.3268L8.61065 15.5651C8.79476 15.3962 8.80706 15.11 8.63813 14.926C8.62947 14.9164 8.62032 14.9072 8.61075 14.8984Z" fill="white"/>
<path d="M15.4441 15.9224H9.96834C9.70536 15.9224 9.49219 16.1355 9.49219 16.3985C9.49219 16.6615 9.70536 16.8747 9.96834 16.8747H15.4441C15.7071 16.8747 15.9203 16.6615 15.9203 16.3985C15.9203 16.1355 15.7071 15.9224 15.4441 15.9224Z" fill="white"/>
</g>
<defs>
<clipPath id="clip0_694_29541">
<rect width="20" height="20" fill="white" transform="translate(0.445312 0.445312)"/>
</clipPath>
</defs>
</svg>
