<svg width="21" height="21" viewBox="0 0 21 21" fill="none" xmlns="http://www.w3.org/2000/svg">
<g clip-path="url(#clip0_694_21575)">
<path d="M15.9711 3.28394H14.1617V2.47449C14.1617 2.21261 13.876 2.09358 13.6141 2.09358H12.2095C11.8762 1.14127 11.0429 0.665116 10.0906 0.665116C9.14877 0.629708 8.29211 1.20721 7.97171 2.09358H6.59087C6.32898 2.09358 6.0671 2.21261 6.0671 2.47449V3.28394H4.25767C3.18542 3.29538 2.30821 4.14124 2.25781 5.21235V18.8541C2.25781 19.9017 3.21012 20.6635 4.25767 20.6635H15.9711C17.0186 20.6635 17.9709 19.9017 17.9709 18.8541V5.21239C17.9205 4.14124 17.0433 3.29538 15.9711 3.28394ZM7.01936 3.04589H8.3288C8.55737 3.018 8.74097 2.84411 8.78116 2.61735C8.92215 2.00335 9.46083 1.56261 10.0906 1.54602C10.7145 1.56493 11.2451 2.00704 11.3762 2.61735C11.4189 2.85195 11.6146 3.02807 11.8524 3.04589H13.2094V4.95051H7.01936V3.04589ZM17.0186 18.8542C17.0186 19.378 16.4948 19.7113 15.9711 19.7113H4.25767C3.7339 19.7113 3.21012 19.378 3.21012 18.8542V5.21239C3.2587 4.6672 3.71038 4.24628 4.25767 4.2363H6.06705V5.45049C6.0922 5.71726 6.32324 5.91681 6.59082 5.90286H13.6141C13.8866 5.91776 14.1249 5.72095 14.1616 5.45049V4.23625H15.971C16.5183 4.24628 16.97 4.66716 17.0186 5.21235V18.8542H17.0186Z" fill="#0AAA4A"/>
<path d="M8.28262 11.3071C8.10403 11.1189 7.80756 11.1083 7.61599 11.2833L6.09228 12.7356L5.44948 12.069C5.27089 11.8807 4.97442 11.8701 4.78285 12.0452C4.59843 12.2384 4.59843 12.5424 4.78285 12.7356L5.75894 13.7355C5.84343 13.8301 5.96546 13.8824 6.09224 13.8784C6.21783 13.8766 6.33763 13.8253 6.42553 13.7355L8.28253 11.9738C8.46663 11.8049 8.47893 11.5187 8.31001 11.3347C8.30135 11.325 8.29219 11.3159 8.28262 11.3071Z" fill="#0AAA4A"/>
<path d="M15.116 12.3311H9.64022C9.37724 12.3311 9.16406 12.5442 9.16406 12.8072C9.16406 13.0702 9.37724 13.2834 9.64022 13.2834H15.116C15.379 13.2834 15.5921 13.0702 15.5921 12.8072C15.5921 12.5442 15.379 12.3311 15.116 12.3311Z" fill="#0AAA4A"/>
<path d="M8.28262 7.49806C8.10403 7.30981 7.80756 7.29919 7.61599 7.47427L6.09228 8.92652L5.44948 8.25988C5.27089 8.07164 4.97442 8.06102 4.78285 8.2361C4.59843 8.42931 4.59843 8.7333 4.78285 8.92652L5.75894 9.92645C5.84343 10.0211 5.96546 10.0734 6.09224 10.0693C6.21783 10.0675 6.33763 10.0162 6.42553 9.92645L8.28253 8.16469C8.46663 7.99581 8.47893 7.70963 8.31001 7.52558C8.30135 7.51596 8.29219 7.5068 8.28262 7.49806Z" fill="#0AAA4A"/>
<path d="M15.116 8.52148H9.64022C9.37724 8.52148 9.16406 8.73466 9.16406 8.99764C9.16406 9.26062 9.37724 9.47379 9.64022 9.47379H15.116C15.379 9.47379 15.5921 9.26062 15.5921 8.99764C15.5921 8.73466 15.379 8.52148 15.116 8.52148Z" fill="#0AAA4A"/>
<path d="M8.28262 15.1162C8.10403 14.928 7.80756 14.9174 7.61599 15.0924L6.09228 16.5447L5.44948 15.878C5.27089 15.6898 4.97442 15.6792 4.78285 15.8542C4.59843 16.0475 4.59843 16.3515 4.78285 16.5447L5.75894 17.5446C5.84343 17.6392 5.96546 17.6915 6.09224 17.6875C6.21783 17.6857 6.33763 17.6343 6.42553 17.5446L8.28253 15.7828C8.46663 15.614 8.47893 15.3278 8.31001 15.1437C8.30135 15.1342 8.29219 15.125 8.28262 15.1162Z" fill="#0AAA4A"/>
<path d="M15.116 16.1401H9.64022C9.37724 16.1401 9.16406 16.3533 9.16406 16.6163C9.16406 16.8793 9.37724 17.0924 9.64022 17.0924H15.116C15.379 17.0924 15.5921 16.8793 15.5921 16.6163C15.5921 16.3533 15.379 16.1401 15.116 16.1401Z" fill="#0AAA4A"/>
</g>
<defs>
<clipPath id="clip0_694_21575">
<rect width="20" height="20" fill="white" transform="translate(0.117188 0.663086)"/>
</clipPath>
</defs>
</svg>
