<svg width="21" height="22" viewBox="0 0 21 22" fill="none" xmlns="http://www.w3.org/2000/svg">
<g clip-path="url(#clip0_694_32924)">
<path d="M16.5759 8.94616C18.8449 8.94616 20.6906 7.10045 20.6906 4.83148C20.6906 2.56251 18.8449 0.716797 16.5759 0.716797C14.9283 0.716797 13.5077 1.69239 12.8512 3.09443L11.7493 2.68775C11.7624 2.60336 11.7755 2.51898 11.7755 2.43125C11.7755 1.48596 11.0063 0.716797 10.061 0.716797C9.11571 0.716797 8.34655 1.48596 8.34655 2.43125C8.34655 3.37654 9.11571 4.1457 10.061 4.1457C10.6751 4.1457 11.2107 3.81821 11.5134 3.33167L12.6134 3.73768C12.5168 4.08677 12.4612 4.45226 12.4612 4.83148C12.4612 5.28069 12.5359 5.71198 12.6697 6.11698L8.89856 7.71524C8.20809 6.40981 6.83753 5.51726 5.26054 5.51726C4.74955 5.51726 4.26201 5.61537 3.81012 5.78615L2.86165 3.79293C3.27486 3.47951 3.54609 2.98844 3.54609 2.43125C3.54609 1.48596 2.77693 0.716797 1.83164 0.716797C0.886347 0.716797 0.117188 1.48596 0.117188 2.43125C0.117188 3.37654 0.886347 4.1457 1.83164 4.1457C1.97429 4.1457 2.11107 4.1231 2.24384 4.08978L3.19114 6.08099C1.9701 6.79556 1.14586 8.11773 1.14586 9.63194C1.14586 11.0542 1.87149 12.3096 2.97148 13.0488L2.3443 14.1762C2.18106 14.1248 2.01129 14.0895 1.83164 14.0895C0.886347 14.0895 0.117188 14.8587 0.117188 15.804C0.117188 16.7493 0.886347 17.5184 1.83164 17.5184C2.77693 17.5184 3.54609 16.7493 3.54609 15.804C3.54609 15.2848 3.30918 14.8244 2.94369 14.5099L3.57221 13.3801C4.08788 13.6135 4.65847 13.7466 5.26054 13.7466C6.20148 13.7466 7.06691 13.4257 7.76089 12.8921L9.11052 14.3768C8.42608 15.112 8.00366 16.0941 8.00366 17.1755C8.00366 17.3853 8.02459 17.5897 8.05473 17.791L6.46685 18.1679C6.19361 17.5835 5.6041 17.1755 4.91765 17.1755C3.97236 17.1755 3.2032 17.9447 3.2032 18.89C3.2032 19.8353 3.97236 20.6044 4.91765 20.6044C5.86294 20.6044 6.6321 19.8353 6.6321 18.89C6.6321 18.8711 6.62691 18.8533 6.62658 18.8344L8.21144 18.4587C8.75189 20.1006 10.2976 21.2902 12.1183 21.2902C14.3873 21.2902 16.233 19.4445 16.233 17.1755C16.233 16.472 16.0551 15.8095 15.7423 15.23L17.7564 13.9204C18.0679 14.2358 18.4992 14.4324 18.9762 14.4324C19.9214 14.4324 20.6906 13.6632 20.6906 12.718C20.6906 11.7727 19.9214 11.0035 18.9762 11.0035C18.0309 11.0035 17.2617 11.7727 17.2617 12.718C17.2617 12.9395 17.3072 13.1499 17.3841 13.3445L15.3653 14.6569C14.9613 14.1376 14.4367 13.7182 13.8328 13.4397L15.5064 8.80017C15.8479 8.89225 16.2056 8.94616 16.5759 8.94616ZM10.061 3.45992C9.49393 3.45992 9.03233 2.99832 9.03233 2.43125C9.03233 1.86417 9.49393 1.40258 10.061 1.40258C10.6281 1.40258 11.0897 1.86417 11.0897 2.43125C11.0897 2.99832 10.6281 3.45992 10.061 3.45992ZM0.802968 2.43125C0.802968 1.86417 1.26456 1.40258 1.83164 1.40258C2.39871 1.40258 2.86031 1.86417 2.86031 2.43125C2.86031 2.99832 2.39871 3.45992 1.83164 3.45992C1.26456 3.45992 0.802968 2.99832 0.802968 2.43125ZM1.83164 16.8326C1.26456 16.8326 0.802968 16.371 0.802968 15.804C0.802968 15.2369 1.26456 14.7753 1.83164 14.7753C2.39871 14.7753 2.86031 15.2369 2.86031 15.804C2.86031 16.371 2.39871 16.8326 1.83164 16.8326ZM4.91765 19.9186C4.35058 19.9186 3.88898 19.4571 3.88898 18.89C3.88898 18.3229 4.35058 17.8613 4.91765 17.8613C5.48473 17.8613 5.94632 18.3229 5.94632 18.89C5.94632 19.4571 5.48473 19.9186 4.91765 19.9186ZM18.9762 11.6893C19.5432 11.6893 20.0048 12.1509 20.0048 12.718C20.0048 13.285 19.5432 13.7466 18.9762 13.7466C18.4091 13.7466 17.9475 13.285 17.9475 12.718C17.9475 12.1509 18.4091 11.6893 18.9762 11.6893ZM14.5566 7.59653C14.7096 6.80343 15.4088 6.20304 16.233 6.20304H16.9188C17.7431 6.20304 18.4422 6.80343 18.5953 7.59653C18.028 8.01175 17.3313 8.26038 16.5759 8.26038C15.8205 8.26038 15.1238 8.01175 14.5566 7.59653ZM16.5759 5.51726C16.0088 5.51726 15.5472 5.05566 15.5472 4.48859C15.5472 3.92151 16.0088 3.45992 16.5759 3.45992C17.143 3.45992 17.6046 3.92151 17.6046 4.48859C17.6046 5.05566 17.143 5.51726 16.5759 5.51726ZM16.5759 1.40258C18.4667 1.40258 20.0048 2.94073 20.0048 4.83148C20.0048 5.68871 19.6862 6.47193 19.164 7.07366C18.9237 6.44095 18.4228 5.93599 17.7986 5.6867C18.1022 5.37729 18.2904 4.95487 18.2904 4.48859C18.2904 3.5433 17.5212 2.77414 16.5759 2.77414C15.6306 2.77414 14.8615 3.5433 14.8615 4.48859C14.8615 4.95487 15.0497 5.37729 15.3532 5.6867C14.729 5.93599 14.2281 6.44095 13.9878 7.07366C13.4656 6.47193 13.147 5.68871 13.147 4.83148C13.147 2.94073 14.6852 1.40258 16.5759 1.40258ZM1.83164 9.63194C1.83164 7.74119 3.36979 6.20304 5.26054 6.20304C7.15129 6.20304 8.68944 7.74119 8.68944 9.63194C8.68944 10.4918 8.36882 11.2771 7.84394 11.8796C7.60452 11.2446 7.10257 10.7371 6.47673 10.4872C6.77994 10.1778 6.96813 9.75534 6.96813 9.28905C6.96813 8.34376 6.19897 7.5746 5.25368 7.5746C4.30838 7.5746 3.53923 8.34376 3.53923 9.28905C3.53923 9.75534 3.72741 10.1778 4.03096 10.4872C3.40863 10.7353 2.90836 11.2384 2.66727 11.8686C2.14808 11.2675 1.83164 10.4868 1.83164 9.63194ZM4.22501 9.28905C4.22501 8.72198 4.6866 8.26038 5.25368 8.26038C5.82075 8.26038 6.28235 8.72198 6.28235 9.28905C6.28235 9.85613 5.82075 10.3177 5.25368 10.3177C4.6866 10.3177 4.22501 9.85613 4.22501 9.28905ZM3.23551 12.3925C3.39005 11.6016 4.08822 11.0035 4.91079 11.0035H5.59657C6.42232 11.0035 7.12283 11.6059 7.27368 12.4015C6.70761 12.8142 6.01312 13.0608 5.26054 13.0608C4.50243 13.0608 3.80359 12.8105 3.23551 12.3925ZM10.0933 19.9361C10.2479 19.1451 10.946 18.5471 11.7686 18.5471H12.4544C13.2801 18.5471 13.9806 19.1495 14.1315 19.9451C13.5654 20.3578 12.8709 20.6044 12.1183 20.6044C11.3602 20.6044 10.6614 20.3541 10.0933 19.9361ZM12.1115 17.8613C11.5444 17.8613 11.0828 17.3997 11.0828 16.8326C11.0828 16.2656 11.5444 15.804 12.1115 15.804C12.6786 15.804 13.1402 16.2656 13.1402 16.8326C13.1402 17.3997 12.6786 17.8613 12.1115 17.8613ZM15.5472 17.1755C15.5472 18.0354 15.2266 18.8207 14.7017 19.4232C14.4623 18.7882 13.9604 18.2807 13.3345 18.0307C13.6377 17.7213 13.8259 17.2989 13.8259 16.8326C13.8259 15.8873 13.0568 15.1182 12.1115 15.1182C11.1662 15.1182 10.397 15.8873 10.397 16.8326C10.397 17.2989 10.5852 17.7213 10.8888 18.0307C10.2664 18.2789 9.76617 18.782 9.52507 19.4122C9.00588 18.8111 8.68944 18.0304 8.68944 17.1755C8.68944 15.2848 10.2276 13.7466 12.1183 13.7466C14.0091 13.7466 15.5472 15.2848 15.5472 17.1755ZM13.1879 13.2068C12.8463 13.1148 12.4887 13.0608 12.1183 13.0608C11.1774 13.0608 10.312 13.3818 9.61799 13.9154L8.26836 12.4307C8.95281 11.6955 9.37522 10.7134 9.37522 9.63194C9.37522 9.18274 9.30055 8.75144 9.16678 8.34644L12.9379 6.74818C13.3603 7.54681 14.0382 8.18772 14.8618 8.56728L13.1879 13.2068Z" fill="white"/>
</g>
<defs>
<clipPath id="clip0_694_32924">
<rect width="20.5734" height="20.5734" fill="white" transform="translate(0.117188 0.716797)"/>
</clipPath>
</defs>
</svg>
