<svg width="21" height="21" viewBox="0 0 21 21" fill="none" xmlns="http://www.w3.org/2000/svg">
<g clip-path="url(#clip0_694_21613)">
<path d="M16.5759 8.55944C18.8449 8.55944 20.6906 6.71373 20.6906 4.44476C20.6906 2.17579 18.8449 0.330078 16.5759 0.330078C14.9283 0.330078 13.5077 1.30567 12.8512 2.70771L11.7493 2.30103C11.7624 2.21664 11.7755 2.13226 11.7755 2.04453C11.7755 1.09924 11.0063 0.330078 10.061 0.330078C9.11571 0.330078 8.34655 1.09924 8.34655 2.04453C8.34655 2.98982 9.11571 3.75898 10.061 3.75898C10.6751 3.75898 11.2107 3.43149 11.5134 2.94495L12.6134 3.35096C12.5168 3.70005 12.4612 4.06554 12.4612 4.44476C12.4612 4.89397 12.5359 5.32526 12.6697 5.73026L8.89856 7.32852C8.20809 6.02309 6.83753 5.13054 5.26054 5.13054C4.74955 5.13054 4.26201 5.22865 3.81012 5.39943L2.86165 3.40621C3.27486 3.09279 3.54609 2.60173 3.54609 2.04453C3.54609 1.09924 2.77693 0.330078 1.83164 0.330078C0.886347 0.330078 0.117188 1.09924 0.117188 2.04453C0.117188 2.98982 0.886347 3.75898 1.83164 3.75898C1.97429 3.75898 2.11107 3.73638 2.24384 3.70306L3.19114 5.69427C1.9701 6.40885 1.14586 7.73102 1.14586 9.24522C1.14586 10.6675 1.87149 11.9229 2.97148 12.6621L2.3443 13.7895C2.18106 13.7381 2.01129 13.7028 1.83164 13.7028C0.886347 13.7028 0.117188 14.472 0.117188 15.4172C0.117188 16.3625 0.886347 17.1317 1.83164 17.1317C2.77693 17.1317 3.54609 16.3625 3.54609 15.4172C3.54609 14.8981 3.30918 14.4376 2.94369 14.1232L3.57221 12.9934C4.08788 13.2268 4.65847 13.3599 5.26054 13.3599C6.20148 13.3599 7.06691 13.0389 7.76089 12.5054L9.11052 13.9901C8.42608 14.7253 8.00366 15.7074 8.00366 16.7888C8.00366 16.9986 8.02459 17.203 8.05473 17.4043L6.46685 17.7811C6.19361 17.1968 5.6041 16.7888 4.91765 16.7888C3.97236 16.7888 3.2032 17.558 3.2032 18.5033C3.2032 19.4486 3.97236 20.2177 4.91765 20.2177C5.86294 20.2177 6.6321 19.4486 6.6321 18.5033C6.6321 18.4843 6.62691 18.4666 6.62658 18.4477L8.21144 18.072C8.75189 19.7139 10.2976 20.9035 12.1183 20.9035C14.3873 20.9035 16.233 19.0578 16.233 16.7888C16.233 16.0853 16.0551 15.4228 15.7423 14.8433L17.7564 13.5337C18.0679 13.8491 18.4992 14.0457 18.9762 14.0457C19.9214 14.0457 20.6906 13.2765 20.6906 12.3312C20.6906 11.3859 19.9214 10.6168 18.9762 10.6168C18.0309 10.6168 17.2617 11.3859 17.2617 12.3312C17.2617 12.5527 17.3072 12.7632 17.3841 12.9577L15.3653 14.2702C14.9613 13.7508 14.4367 13.3314 13.8328 13.053L15.5064 8.41345C15.8479 8.50553 16.2056 8.55944 16.5759 8.55944ZM10.061 3.0732C9.49393 3.0732 9.03233 2.6116 9.03233 2.04453C9.03233 1.47745 9.49393 1.01586 10.061 1.01586C10.6281 1.01586 11.0897 1.47745 11.0897 2.04453C11.0897 2.6116 10.6281 3.0732 10.061 3.0732ZM0.802968 2.04453C0.802968 1.47745 1.26456 1.01586 1.83164 1.01586C2.39871 1.01586 2.86031 1.47745 2.86031 2.04453C2.86031 2.6116 2.39871 3.0732 1.83164 3.0732C1.26456 3.0732 0.802968 2.6116 0.802968 2.04453ZM1.83164 16.4459C1.26456 16.4459 0.802968 15.9843 0.802968 15.4172C0.802968 14.8502 1.26456 14.3886 1.83164 14.3886C2.39871 14.3886 2.86031 14.8502 2.86031 15.4172C2.86031 15.9843 2.39871 16.4459 1.83164 16.4459ZM4.91765 19.5319C4.35058 19.5319 3.88898 19.0703 3.88898 18.5033C3.88898 17.9362 4.35058 17.4746 4.91765 17.4746C5.48473 17.4746 5.94632 17.9362 5.94632 18.5033C5.94632 19.0703 5.48473 19.5319 4.91765 19.5319ZM18.9762 11.3026C19.5432 11.3026 20.0048 11.7642 20.0048 12.3312C20.0048 12.8983 19.5432 13.3599 18.9762 13.3599C18.4091 13.3599 17.9475 12.8983 17.9475 12.3312C17.9475 11.7642 18.4091 11.3026 18.9762 11.3026ZM14.5566 7.20982C14.7096 6.41671 15.4088 5.81632 16.233 5.81632H16.9188C17.7431 5.81632 18.4422 6.41671 18.5953 7.20982C18.028 7.62503 17.3313 7.87366 16.5759 7.87366C15.8205 7.87366 15.1238 7.62503 14.5566 7.20982ZM16.5759 5.13054C16.0088 5.13054 15.5472 4.66895 15.5472 4.10187C15.5472 3.5348 16.0088 3.0732 16.5759 3.0732C17.143 3.0732 17.6046 3.5348 17.6046 4.10187C17.6046 4.66895 17.143 5.13054 16.5759 5.13054ZM16.5759 1.01586C18.4667 1.01586 20.0048 2.55401 20.0048 4.44476C20.0048 5.30199 19.6862 6.08521 19.164 6.68694C18.9237 6.05424 18.4228 5.54928 17.7986 5.29998C18.1022 4.99057 18.2904 4.56815 18.2904 4.10187C18.2904 3.15658 17.5212 2.38742 16.5759 2.38742C15.6306 2.38742 14.8615 3.15658 14.8615 4.10187C14.8615 4.56815 15.0497 4.99057 15.3532 5.29998C14.729 5.54928 14.2281 6.05424 13.9878 6.68694C13.4656 6.08521 13.147 5.30199 13.147 4.44476C13.147 2.55401 14.6852 1.01586 16.5759 1.01586ZM1.83164 9.24522C1.83164 7.35447 3.36979 5.81632 5.26054 5.81632C7.15129 5.81632 8.68944 7.35447 8.68944 9.24522C8.68944 10.1051 8.36882 10.8904 7.84394 11.4929C7.60452 10.8579 7.10257 10.3504 6.47673 10.1004C6.77994 9.79104 6.96813 9.36862 6.96813 8.90233C6.96813 7.95704 6.19897 7.18788 5.25368 7.18788C4.30838 7.18788 3.53923 7.95704 3.53923 8.90233C3.53923 9.36862 3.72741 9.79104 4.03096 10.1004C3.40863 10.3486 2.90836 10.8517 2.66727 11.4819C2.14808 10.8808 1.83164 10.1001 1.83164 9.24522ZM4.22501 8.90233C4.22501 8.33526 4.6866 7.87366 5.25368 7.87366C5.82075 7.87366 6.28235 8.33526 6.28235 8.90233C6.28235 9.46941 5.82075 9.931 5.25368 9.931C4.6866 9.931 4.22501 9.46941 4.22501 8.90233ZM3.23551 12.0058C3.39005 11.2148 4.08822 10.6168 4.91079 10.6168H5.59657C6.42232 10.6168 7.12283 11.2192 7.27368 12.0148C6.70761 12.4275 6.01312 12.6741 5.26054 12.6741C4.50243 12.6741 3.80359 12.4238 3.23551 12.0058ZM10.0933 19.5493C10.2479 18.7584 10.946 18.1604 11.7686 18.1604H12.4544C13.2801 18.1604 13.9806 18.7628 14.1315 19.5584C13.5654 19.9711 12.8709 20.2177 12.1183 20.2177C11.3602 20.2177 10.6614 19.9674 10.0933 19.5493ZM12.1115 17.4746C11.5444 17.4746 11.0828 17.013 11.0828 16.4459C11.0828 15.8788 11.5444 15.4172 12.1115 15.4172C12.6786 15.4172 13.1402 15.8788 13.1402 16.4459C13.1402 17.013 12.6786 17.4746 12.1115 17.4746ZM15.5472 16.7888C15.5472 17.6487 15.2266 18.4339 14.7017 19.0365C14.4623 18.4015 13.9604 17.894 13.3345 17.644C13.6377 17.3346 13.8259 16.9122 13.8259 16.4459C13.8259 15.5006 13.0568 14.7315 12.1115 14.7315C11.1662 14.7315 10.397 15.5006 10.397 16.4459C10.397 16.9122 10.5852 17.3346 10.8888 17.644C10.2664 17.8922 9.76617 18.3953 9.52507 19.0255C9.00588 18.4244 8.68944 17.6437 8.68944 16.7888C8.68944 14.8981 10.2276 13.3599 12.1183 13.3599C14.0091 13.3599 15.5472 14.8981 15.5472 16.7888ZM13.1879 12.8201C12.8463 12.728 12.4887 12.6741 12.1183 12.6741C11.1774 12.6741 10.312 12.9951 9.61799 13.5287L8.26836 12.0439C8.95281 11.3088 9.37522 10.3266 9.37522 9.24522C9.37522 8.79602 9.30055 8.36473 9.16678 7.95972L12.9379 6.36146C13.3603 7.16009 14.0382 7.801 14.8618 8.18056L13.1879 12.8201Z" fill="#0AAA4A"/>
</g>
<defs>
<clipPath id="clip0_694_21613">
<rect width="20.5734" height="20.5734" fill="white" transform="translate(0.117188 0.330078)"/>
</clipPath>
</defs>
</svg>
