<svg width="21" height="22" viewBox="0 0 21 22" fill="none" xmlns="http://www.w3.org/2000/svg">
<g clip-path="url(#clip0_694_21658)">
<path d="M0.441406 3.57419V1.87982C0.441406 1.43597 0.8012 1.07617 1.24506 1.07617H12.1052L15.514 4.48497V10.7648" stroke="#0AAA4A" stroke-width="0.602737" stroke-miterlimit="10" stroke-linecap="round" stroke-linejoin="round"/>
<path d="M14.5864 21.0469H1.24506C0.8012 21.0469 0.441406 20.6871 0.441406 20.2433V4.89355" stroke="#0AAA4A" stroke-width="0.602737" stroke-miterlimit="10" stroke-linecap="round" stroke-linejoin="round"/>
<path d="M12.1055 1.07617V3.68132C12.1055 4.12518 12.4653 4.48497 12.9091 4.48497H15.5143L12.1055 1.07617Z" stroke="#0AAA4A" stroke-width="0.602737" stroke-miterlimit="10" stroke-linecap="round" stroke-linejoin="round"/>
<path d="M4.70345 4.73291H3.05078V9.31479H4.70345V4.73291Z" stroke="#0AAA4A" stroke-width="0.602737" stroke-miterlimit="10" stroke-linecap="round" stroke-linejoin="round"/>
<path d="M7.43782 5.89795H5.78516V9.31454H7.43782V5.89795Z" stroke="#0AAA4A" stroke-width="0.602737" stroke-miterlimit="10" stroke-linecap="round" stroke-linejoin="round"/>
<path d="M10.1722 3.57422H8.51953V9.31468H10.1722V3.57422Z" stroke="#0AAA4A" stroke-width="0.602737" stroke-miterlimit="10" stroke-linecap="round" stroke-linejoin="round"/>
<path d="M12.9066 6.94971H11.2539V9.31485H12.9066V6.94971Z" stroke="#0AAA4A" stroke-width="0.602737" stroke-miterlimit="10" stroke-linecap="round" stroke-linejoin="round"/>
<path d="M2.25391 10.6035H13.7023" stroke="#0AAA4A" stroke-width="0.602737" stroke-miterlimit="10" stroke-linecap="round" stroke-linejoin="round"/>
<path d="M7.97831 12.6855H3.05078V14.1956H7.97831V12.6855Z" stroke="#0AAA4A" stroke-width="0.602737" stroke-miterlimit="10" stroke-linecap="round" stroke-linejoin="round"/>
<path d="M12.908 12.6855H7.98047V14.1956H12.908V12.6855Z" stroke="#0AAA4A" stroke-width="0.602737" stroke-miterlimit="10" stroke-linecap="round" stroke-linejoin="round"/>
<path d="M3.67188 15.7056H6.31833" stroke="#0AAA4A" stroke-width="0.602737" stroke-miterlimit="10" stroke-linecap="round" stroke-linejoin="round"/>
<path d="M3.67188 17.2158H6.31833" stroke="#0AAA4A" stroke-width="0.602737" stroke-miterlimit="10" stroke-linecap="round" stroke-linejoin="round"/>
<path d="M3.67188 18.7256H6.31833" stroke="#0AAA4A" stroke-width="0.602737" stroke-miterlimit="10" stroke-linecap="round" stroke-linejoin="round"/>
<path d="M9.63672 15.7056H12.2832" stroke="#0AAA4A" stroke-width="0.602737" stroke-miterlimit="10" stroke-linecap="round" stroke-linejoin="round"/>
<path d="M9.63672 17.2158H12.2832" stroke="#0AAA4A" stroke-width="0.602737" stroke-miterlimit="10" stroke-linecap="round" stroke-linejoin="round"/>
<path d="M9.63672 18.7256H12.2832" stroke="#0AAA4A" stroke-width="0.602737" stroke-miterlimit="10" stroke-linecap="round" stroke-linejoin="round"/>
<path d="M7.97656 14.1953V19.1424" stroke="#0AAA4A" stroke-width="0.602737" stroke-miterlimit="10" stroke-linecap="round" stroke-linejoin="round"/>
<path d="M17.2162 10.2627C15.4831 10.2627 14.0781 11.6698 14.0781 13.4056C14.0781 15.1414 15.4831 16.5485 17.2162 16.5485C18.9493 16.5485 20.3543 15.1414 20.3543 13.4056C20.3543 11.6698 18.9493 10.2627 17.2162 10.2627Z" stroke="#0AAA4A" stroke-width="0.602737" stroke-miterlimit="10" stroke-linecap="round" stroke-linejoin="round"/>
<path d="M18.8809 14.1929C18.9938 13.9539 19.0572 13.687 19.0572 13.4055C19.0572 12.3876 18.2313 11.5596 17.2161 11.5596C16.2009 11.5596 15.375 12.3876 15.375 13.4055C15.375 14.4233 16.2009 15.2514 17.2161 15.2514C17.5161 15.2514 17.7993 15.1786 18.0498 15.0505" stroke="#0AAA4A" stroke-width="0.602737" stroke-miterlimit="10" stroke-linecap="round" stroke-linejoin="round"/>
<path d="M19.8439 18.0582H14.5849C14.2964 18.0582 14.0625 17.8243 14.0625 17.5358V17.0863C14.0625 16.7978 14.2964 16.564 14.5849 16.564H19.8438C20.1323 16.564 20.3662 16.7978 20.3662 17.0863V17.5358C20.3662 17.8243 20.1323 18.0582 19.8439 18.0582Z" stroke="#0AAA4A" stroke-width="0.602737" stroke-miterlimit="10" stroke-linecap="round" stroke-linejoin="round"/>
<path d="M19.8439 19.5528H14.5849C14.2964 19.5528 14.0625 19.319 14.0625 19.0304V18.581C14.0625 18.2925 14.2964 18.0586 14.5849 18.0586H19.8438C20.1323 18.0586 20.3662 18.2925 20.3662 18.581V19.0304C20.3662 19.3189 20.1323 19.5528 19.8439 19.5528Z" stroke="#0AAA4A" stroke-width="0.602737" stroke-miterlimit="10" stroke-linecap="round" stroke-linejoin="round"/>
<path d="M19.8439 21.047H14.5849C14.2964 21.047 14.0625 20.8131 14.0625 20.5246V20.0751C14.0625 19.7866 14.2964 19.5527 14.5849 19.5527H19.8438C20.1323 19.5527 20.3662 19.7866 20.3662 20.0751V20.5246C20.3662 20.8131 20.1323 21.047 19.8439 21.047Z" stroke="#0AAA4A" stroke-width="0.602737" stroke-miterlimit="10" stroke-linecap="round" stroke-linejoin="round"/>
</g>
<defs>
<clipPath id="clip0_694_21658">
<rect width="20.5734" height="20.5734" fill="white" transform="translate(0.117188 0.774902)"/>
</clipPath>
</defs>
</svg>
