<svg width="21" height="22" viewBox="0 0 21 22" fill="none" xmlns="http://www.w3.org/2000/svg">
<g clip-path="url(#clip0_758_6655)">
<path d="M0.441406 3.73875V2.04437C0.441406 1.60052 0.8012 1.24072 1.24506 1.24072H12.1052L15.514 4.64952V10.9293" stroke="white" stroke-width="0.602737" stroke-miterlimit="10" stroke-linecap="round" stroke-linejoin="round"/>
<path d="M14.5864 21.2115H1.24506C0.801203 21.2115 0.441409 20.8517 0.441409 20.4078V5.05811" stroke="white" stroke-width="0.602737" stroke-miterlimit="10" stroke-linecap="round" stroke-linejoin="round"/>
<path d="M12.1055 1.24072V3.84587C12.1055 4.28973 12.4653 4.64952 12.9091 4.64952H15.5143L12.1055 1.24072Z" stroke="white" stroke-width="0.602737" stroke-miterlimit="10" stroke-linecap="round" stroke-linejoin="round"/>
<path d="M4.70323 4.89735H3.05056V9.47924H4.70323V4.89735Z" stroke="white" stroke-width="0.602737" stroke-miterlimit="10" stroke-linecap="round" stroke-linejoin="round"/>
<path d="M7.4376 6.0626H5.78494V9.47919H7.4376V6.0626Z" stroke="white" stroke-width="0.602737" stroke-miterlimit="10" stroke-linecap="round" stroke-linejoin="round"/>
<path d="M10.172 3.73874H8.51932V9.47921H10.172V3.73874Z" stroke="white" stroke-width="0.602737" stroke-miterlimit="10" stroke-linecap="round" stroke-linejoin="round"/>
<path d="M12.9064 7.11423H11.2537V9.47937H12.9064V7.11423Z" stroke="white" stroke-width="0.602737" stroke-miterlimit="10" stroke-linecap="round" stroke-linejoin="round"/>
<path d="M2.25391 10.768H13.7023" stroke="white" stroke-width="0.602737" stroke-miterlimit="10" stroke-linecap="round" stroke-linejoin="round"/>
<path d="M7.9781 12.8502H3.05057V14.3603H7.9781V12.8502Z" stroke="white" stroke-width="0.602737" stroke-miterlimit="10" stroke-linecap="round" stroke-linejoin="round"/>
<path d="M12.9097 12.8502H7.98221V14.3603H12.9097V12.8502Z" stroke="white" stroke-width="0.602737" stroke-miterlimit="10" stroke-linecap="round" stroke-linejoin="round"/>
<path d="M3.67351 15.8703H6.31996" stroke="white" stroke-width="0.602737" stroke-miterlimit="10" stroke-linecap="round" stroke-linejoin="round"/>
<path d="M3.67351 17.3803H6.31996" stroke="white" stroke-width="0.602737" stroke-miterlimit="10" stroke-linecap="round" stroke-linejoin="round"/>
<path d="M3.67351 18.8903H6.31996" stroke="white" stroke-width="0.602737" stroke-miterlimit="10" stroke-linecap="round" stroke-linejoin="round"/>
<path d="M9.6365 15.8704H12.283" stroke="white" stroke-width="0.602737" stroke-miterlimit="10" stroke-linecap="round" stroke-linejoin="round"/>
<path d="M9.63651 17.3805H12.283" stroke="white" stroke-width="0.602737" stroke-miterlimit="10" stroke-linecap="round" stroke-linejoin="round"/>
<path d="M9.63651 18.8904H12.283" stroke="white" stroke-width="0.602737" stroke-miterlimit="10" stroke-linecap="round" stroke-linejoin="round"/>
<path d="M7.9781 14.3602V19.3073" stroke="white" stroke-width="0.602737" stroke-miterlimit="10" stroke-linecap="round" stroke-linejoin="round"/>
<path d="M17.2163 10.4272C15.4832 10.4272 14.0782 11.8344 14.0782 13.5701C14.0782 15.3059 15.4832 16.7131 17.2163 16.7131C18.9494 16.7131 20.3544 15.3059 20.3544 13.5701C20.3544 11.8344 18.9494 10.4272 17.2163 10.4272Z" stroke="white" stroke-width="0.602737" stroke-miterlimit="10" stroke-linecap="round" stroke-linejoin="round"/>
<path d="M18.8811 14.3576C18.994 14.1186 19.0574 13.8517 19.0574 13.5701C19.0574 12.5523 18.2315 11.7242 17.2163 11.7242C16.2011 11.7242 15.3752 12.5523 15.3752 13.5701C15.3752 14.588 16.2011 15.4161 17.2163 15.4161C17.5163 15.4161 17.7995 15.3433 18.05 15.2152" stroke="white" stroke-width="0.602737" stroke-miterlimit="10" stroke-linecap="round" stroke-linejoin="round"/>
<path d="M19.8458 18.2229H14.5868C14.2983 18.2229 14.0645 17.9891 14.0645 17.7006V17.2511C14.0645 16.9626 14.2983 16.7287 14.5868 16.7287H19.8458C20.1343 16.7287 20.3682 16.9626 20.3682 17.2511V17.7006C20.3682 17.9891 20.1343 18.2229 19.8458 18.2229Z" stroke="white" stroke-width="0.602737" stroke-miterlimit="10" stroke-linecap="round" stroke-linejoin="round"/>
<path d="M19.8458 19.7172H14.5868C14.2983 19.7172 14.0645 19.4834 14.0645 19.1949V18.7454C14.0645 18.4569 14.2983 18.223 14.5868 18.223H19.8458C20.1343 18.223 20.3682 18.4569 20.3682 18.7454V19.1949C20.3682 19.4833 20.1343 19.7172 19.8458 19.7172Z" stroke="white" stroke-width="0.602737" stroke-miterlimit="10" stroke-linecap="round" stroke-linejoin="round"/>
<path d="M19.8458 21.2114H14.5868C14.2983 21.2114 14.0645 20.9775 14.0645 20.689V20.2395C14.0645 19.951 14.2983 19.7172 14.5868 19.7172H19.8458C20.1343 19.7172 20.3682 19.951 20.3682 20.2395V20.689C20.3682 20.9775 20.1343 21.2114 19.8458 21.2114Z" stroke="white" stroke-width="0.602737" stroke-miterlimit="10" stroke-linecap="round" stroke-linejoin="round"/>
</g>
<defs>
<clipPath id="clip0_758_6655">
<rect width="20.5734" height="20.5734" fill="white" transform="translate(0.117188 0.939453)"/>
</clipPath>
</defs>
</svg>
