<svg width="16" height="18" viewBox="0 0 16 18" fill="none" xmlns="http://www.w3.org/2000/svg">
<path d="M15.3409 9.64844C15.6909 9.3426 15.9167 8.89885 15.9167 8.39844C15.9167 7.47927 15.1692 6.73177 14.25 6.73177H9.86587C10.0067 6.18844 10.0834 5.62802 10.0834 5.0651V2.98177C10.0834 1.83302 9.14879 0.898438 8.00004 0.898438C6.85129 0.898438 5.91671 1.83302 5.91671 2.98177C5.91671 4.52594 5.53712 5.68885 4.78879 6.43719L2.41087 8.8151H0.500041C0.270041 8.8151 0.083374 9.00135 0.083374 9.23177V16.3151C0.083374 16.5455 0.270041 16.7318 0.500041 16.7318H3.25837C3.87879 17.2572 4.66671 17.5518 5.50004 17.5651H14.25C15.1692 17.5651 15.9167 16.8176 15.9167 15.8984C15.9167 15.398 15.6909 14.9543 15.3409 14.6484C15.6909 14.3426 15.9167 13.8989 15.9167 13.3984C15.9167 12.898 15.6909 12.4543 15.3409 12.1484C15.6909 11.8426 15.9167 11.3989 15.9167 10.8984C15.9167 10.398 15.6909 9.95427 15.3409 9.64844ZM10.6592 12.1484C10.3092 12.4543 10.0834 12.898 10.0834 13.3984C10.0834 13.8989 10.3092 14.3426 10.6592 14.6484C10.3092 14.9543 10.0834 15.398 10.0834 15.8984C10.0834 16.2034 10.1717 16.4855 10.315 16.7318H5.50671C4.83879 16.7209 4.18046 16.458 3.70087 16.0105C3.62379 15.9384 3.52212 15.8984 3.41671 15.8984H0.916707V9.64844H2.58337C2.69379 9.64844 2.80004 9.60469 2.87796 9.52635L5.37796 7.02635C6.28837 6.11594 6.75004 4.7551 6.75004 2.98177C6.75004 2.2926 7.31087 1.73177 8.00004 1.73177C8.68921 1.73177 9.25004 2.2926 9.25004 2.98177V5.0651C9.25004 6.31885 8.83546 7.56177 8.08337 8.5651C8.02921 8.63719 8.00004 8.72469 8.00004 8.8151C8.00004 11.1126 6.69171 12.9818 5.08337 12.9818C4.85337 12.9818 4.66671 13.168 4.66671 13.3984C4.66671 13.6289 4.85337 13.8151 5.08337 13.8151C7.11629 13.8151 8.77671 11.6468 8.83212 8.95344C9.14087 8.5226 9.39546 8.0551 9.59379 7.5651H10.3155C10.1717 7.81135 10.0834 8.09344 10.0834 8.39844C10.0834 8.89885 10.3092 9.3426 10.6592 9.64844C10.3092 9.95427 10.0834 10.398 10.0834 10.8984C10.0834 11.3989 10.3092 11.8426 10.6592 12.1484ZM14.25 16.7318H11.75C11.2905 16.7318 10.9167 16.358 10.9167 15.8984C10.9167 15.4389 11.2905 15.0651 11.75 15.0651H14.25C14.7096 15.0651 15.0834 15.4389 15.0834 15.8984C15.0834 16.358 14.7096 16.7318 14.25 16.7318ZM14.25 14.2318H11.75C11.2905 14.2318 10.9167 13.858 10.9167 13.3984C10.9167 12.9389 11.2905 12.5651 11.75 12.5651H14.25C14.7096 12.5651 15.0834 12.9389 15.0834 13.3984C15.0834 13.858 14.7096 14.2318 14.25 14.2318ZM14.25 11.7318H11.75C11.2905 11.7318 10.9167 11.358 10.9167 10.8984C10.9167 10.4389 11.2905 10.0651 11.75 10.0651H14.25C14.7096 10.0651 15.0834 10.4389 15.0834 10.8984C15.0834 11.358 14.7096 11.7318 14.25 11.7318ZM14.25 9.23177H11.75C11.2905 9.23177 10.9167 8.85802 10.9167 8.39844C10.9167 7.93885 11.2905 7.5651 11.75 7.5651H14.25C14.7096 7.5651 15.0834 7.93885 15.0834 8.39844C15.0834 8.85802 14.7096 9.23177 14.25 9.23177Z" fill="#0AAA4A"/>
</svg>
