<svg width="19" height="18" viewBox="0 0 19 18" fill="none" xmlns="http://www.w3.org/2000/svg">
<path d="M7.68359 0.0322266H8.24219H10.9922H11.5508L11.6797 0.59082L12.0664 2.61035C12.6966 2.86816 13.2839 3.22624 13.8281 3.68457L15.8477 2.99707L16.4062 2.8252L16.6641 3.29785L18.0391 5.7041L18.2969 6.17676L17.9102 6.56348L16.3633 7.89551C16.4492 8.41113 16.4922 8.76921 16.4922 8.96973C16.4922 9.17025 16.4492 9.52832 16.3633 10.0439L17.9102 11.376L18.2969 11.7627L18.0391 12.2354L16.6641 14.6416L16.4062 15.1143L15.8477 14.9424L13.8281 14.2549C13.2839 14.7132 12.6966 15.0713 12.0664 15.3291L11.6797 17.3486L11.5508 17.9072H10.9922H8.24219H7.68359L7.55469 17.3486L7.16797 15.3291C6.53776 15.0713 5.95052 14.7132 5.40625 14.2549L3.38672 14.9424L2.82812 15.1143L2.57031 14.6416L1.19531 12.2354L0.9375 11.7627L1.32422 11.376L2.87109 10.0439C2.78516 9.52832 2.74219 9.17025 2.74219 8.96973C2.74219 8.76921 2.78516 8.41113 2.87109 7.89551L1.32422 6.56348L0.9375 6.17676L1.19531 5.7041L2.57031 3.29785L2.82812 2.8252L3.38672 2.99707L5.40625 3.68457C5.95052 3.22624 6.53776 2.86816 7.16797 2.61035L7.55469 0.59082L7.68359 0.0322266ZM8.80078 1.40723L8.45703 3.21191L8.37109 3.59863L7.98438 3.72754C7.21094 3.98535 6.52344 4.38639 5.92188 4.93066L5.57812 5.18848L5.23438 5.10254L3.47266 4.50098L2.65625 5.87598L4.03125 7.0791L4.375 7.33691L4.24609 7.7666C4.16016 8.139 4.11719 8.54004 4.11719 8.96973C4.11719 9.39941 4.16016 9.80046 4.24609 10.1729L4.375 10.6025L4.03125 10.8604L2.65625 12.0635L3.47266 13.4385L5.23438 12.8369L5.57812 12.751L5.92188 13.0088C6.52344 13.5531 7.21094 13.9541 7.98438 14.2119L8.37109 14.3408L8.45703 14.7275L8.80078 16.5322H10.4336L10.7773 14.7275L10.8633 14.3408L11.25 14.2119C12.0234 13.9541 12.7109 13.5531 13.3125 13.0088L13.6562 12.751L14 12.8369L15.7617 13.4385L16.5781 12.0635L15.2031 10.8604L14.9023 10.6025L14.9883 10.1729C15.0742 9.80046 15.1172 9.39941 15.1172 8.96973C15.1172 8.54004 15.0742 8.139 14.9883 7.7666L14.8594 7.33691L15.2031 7.0791L16.5781 5.87598L15.7617 4.50098L14 5.10254L13.6562 5.18848L13.3125 4.93066C12.7109 4.38639 12.0234 3.98535 11.25 3.72754L10.8633 3.59863L10.7773 3.21191L10.4336 1.40723H8.80078ZM7.16797 6.56348C7.85547 5.87598 8.67188 5.53223 9.61719 5.53223C10.5625 5.53223 11.3646 5.87598 12.0234 6.56348C12.7109 7.22233 13.0547 8.02441 13.0547 8.96973C13.0547 9.91504 12.7109 10.7314 12.0234 11.4189C11.3646 12.0778 10.5625 12.4072 9.61719 12.4072C8.67188 12.4072 7.85547 12.0778 7.16797 11.4189C6.50911 10.7314 6.17969 9.91504 6.17969 8.96973C6.17969 8.02441 6.50911 7.22233 7.16797 6.56348ZM11.0781 7.50879C10.6771 7.10775 10.1901 6.90723 9.61719 6.90723C9.04427 6.90723 8.55729 7.10775 8.15625 7.50879C7.75521 7.90983 7.55469 8.39681 7.55469 8.96973C7.55469 9.54264 7.75521 10.0296 8.15625 10.4307C8.55729 10.8317 9.04427 11.0322 9.61719 11.0322C10.1901 11.0322 10.6771 10.8317 11.0781 10.4307C11.4792 10.0296 11.6797 9.54264 11.6797 8.96973C11.6797 8.39681 11.4792 7.90983 11.0781 7.50879Z" fill="#0AAA4A"/>
</svg>
