<svg width="19" height="19" viewBox="0 0 19 19" fill="none" xmlns="http://www.w3.org/2000/svg">
<path d="M7.68359 0.197266H8.24219H10.9922H11.5508L11.6797 0.755859L12.0664 2.77539C12.6966 3.0332 13.2839 3.39128 13.8281 3.84961L15.8477 3.16211L16.4062 2.99023L16.6641 3.46289L18.0391 5.86914L18.2969 6.3418L17.9102 6.72852L16.3633 8.06055C16.4492 8.57617 16.4922 8.93424 16.4922 9.13477C16.4922 9.33529 16.4492 9.69336 16.3633 10.209L17.9102 11.541L18.2969 11.9277L18.0391 12.4004L16.6641 14.8066L16.4062 15.2793L15.8477 15.1074L13.8281 14.4199C13.2839 14.8783 12.6966 15.2363 12.0664 15.4941L11.6797 17.5137L11.5508 18.0723H10.9922H8.24219H7.68359L7.55469 17.5137L7.16797 15.4941C6.53776 15.2363 5.95052 14.8783 5.40625 14.4199L3.38672 15.1074L2.82812 15.2793L2.57031 14.8066L1.19531 12.4004L0.9375 11.9277L1.32422 11.541L2.87109 10.209C2.78516 9.69336 2.74219 9.33529 2.74219 9.13477C2.74219 8.93424 2.78516 8.57617 2.87109 8.06055L1.32422 6.72852L0.9375 6.3418L1.19531 5.86914L2.57031 3.46289L2.82812 2.99023L3.38672 3.16211L5.40625 3.84961C5.95052 3.39128 6.53776 3.0332 7.16797 2.77539L7.55469 0.755859L7.68359 0.197266ZM8.80078 1.57227L8.45703 3.37695L8.37109 3.76367L7.98438 3.89258C7.21094 4.15039 6.52344 4.55143 5.92188 5.0957L5.57812 5.35352L5.23438 5.26758L3.47266 4.66602L2.65625 6.04102L4.03125 7.24414L4.375 7.50195L4.24609 7.93164C4.16016 8.30404 4.11719 8.70508 4.11719 9.13477C4.11719 9.56445 4.16016 9.96549 4.24609 10.3379L4.375 10.7676L4.03125 11.0254L2.65625 12.2285L3.47266 13.6035L5.23438 13.002L5.57812 12.916L5.92188 13.1738C6.52344 13.7181 7.21094 14.1191 7.98438 14.377L8.37109 14.5059L8.45703 14.8926L8.80078 16.6973H10.4336L10.7773 14.8926L10.8633 14.5059L11.25 14.377C12.0234 14.1191 12.7109 13.7181 13.3125 13.1738L13.6562 12.916L14 13.002L15.7617 13.6035L16.5781 12.2285L15.2031 11.0254L14.9023 10.7676L14.9883 10.3379C15.0742 9.96549 15.1172 9.56445 15.1172 9.13477C15.1172 8.70508 15.0742 8.30404 14.9883 7.93164L14.8594 7.50195L15.2031 7.24414L16.5781 6.04102L15.7617 4.66602L14 5.26758L13.6562 5.35352L13.3125 5.0957C12.7109 4.55143 12.0234 4.15039 11.25 3.89258L10.8633 3.76367L10.7773 3.37695L10.4336 1.57227H8.80078ZM7.16797 6.72852C7.85547 6.04102 8.67188 5.69727 9.61719 5.69727C10.5625 5.69727 11.3646 6.04102 12.0234 6.72852C12.7109 7.38737 13.0547 8.18945 13.0547 9.13477C13.0547 10.0801 12.7109 10.8965 12.0234 11.584C11.3646 12.2428 10.5625 12.5723 9.61719 12.5723C8.67188 12.5723 7.85547 12.2428 7.16797 11.584C6.50911 10.8965 6.17969 10.0801 6.17969 9.13477C6.17969 8.18945 6.50911 7.38737 7.16797 6.72852ZM11.0781 7.67383C10.6771 7.27279 10.1901 7.07227 9.61719 7.07227C9.04427 7.07227 8.55729 7.27279 8.15625 7.67383C7.75521 8.07487 7.55469 8.56185 7.55469 9.13477C7.55469 9.70768 7.75521 10.1947 8.15625 10.5957C8.55729 10.9967 9.04427 11.1973 9.61719 11.1973C10.1901 11.1973 10.6771 10.9967 11.0781 10.5957C11.4792 10.1947 11.6797 9.70768 11.6797 9.13477C11.6797 8.56185 11.4792 8.07487 11.0781 7.67383Z" fill="white"/>
</svg>
