<svg width="23" height="23" viewBox="0 0 23 23" fill="none" xmlns="http://www.w3.org/2000/svg">
<mask id="mask0_694_21698" style="mask-type:luminance" maskUnits="userSpaceOnUse" x="0" y="-1" width="23" height="24">
<path d="M0.117188 -0.00233841H22.7479V22.6284H0.117188V-0.00233841Z" fill="white"/>
</mask>
<g mask="url(#mask0_694_21698)">
<path d="M8.91016 16.6151C9.51553 19.6656 12.2063 21.9653 15.4346 21.9653C16.7694 21.9653 18.0122 21.5719 19.0539 20.8951L21.767 21.6455L21.0166 18.9324C21.6934 17.8907 22.0868 16.6479 22.0868 15.3131C22.0868 12.0848 19.7871 9.39404 16.7366 8.78866" stroke="#0AAA4A" stroke-width="1.32602" stroke-miterlimit="10"/>
<path d="M8.75947 0.660738C4.35324 0.660738 0.78125 4.23273 0.78125 8.63896C0.78125 10.2186 1.24045 11.691 2.03244 12.93L1.10104 16.2974L4.46843 15.366C5.70751 16.158 7.17983 16.6172 8.75947 16.6172C13.1657 16.6172 16.7377 13.0452 16.7377 8.63896C16.7377 4.23273 13.1657 0.660738 8.75947 0.660738Z" stroke="#0AAA4A" stroke-width="1.32602" stroke-miterlimit="10"/>
<path d="M9.42368 13.3018H8.09766V11.9757H9.42368V13.3018Z" fill="#0AAA4A"/>
<path d="M6.76953 6.62764C6.76953 5.52912 7.66004 4.63861 8.75856 4.63861C9.85708 4.63861 10.7476 5.52912 10.7476 6.62764C10.7476 7.20888 10.4982 7.73182 10.1006 8.09546L8.75856 9.32388V10.6499" stroke="#0AAA4A" stroke-width="1.32602" stroke-miterlimit="10"/>
</g>
</svg>
