<svg width="23" height="23" viewBox="0 0 23 23" fill="none" xmlns="http://www.w3.org/2000/svg">
<mask id="mask0_758_6689" style="mask-type:luminance" maskUnits="userSpaceOnUse" x="0" y="0" width="23" height="23">
<path d="M0.117188 0.162212H22.7479V22.793H0.117188V0.162212Z" fill="white"/>
</mask>
<g mask="url(#mask0_758_6689)">
<path d="M8.90827 16.7798C9.51364 19.8302 12.2044 22.1299 15.4327 22.1299C16.7676 22.1299 18.0103 21.7365 19.052 21.0597L21.7651 21.8101L21.0147 19.097C21.6915 18.0553 22.0849 16.8125 22.0849 15.4777C22.0849 12.2494 19.7852 9.55864 16.7348 8.95327" stroke="white" stroke-width="1.32602" stroke-miterlimit="10"/>
<path d="M8.75842 0.825203C4.35218 0.825203 0.780191 4.39719 0.780191 8.80343C0.780191 10.3831 1.23939 11.8554 2.03138 13.0945L1.09998 16.4619L4.46737 15.5305C5.70645 16.3225 7.17877 16.7817 8.75842 16.7817C13.1647 16.7817 16.7366 13.2097 16.7366 8.80343C16.7366 4.39719 13.1647 0.825203 8.75842 0.825203Z" stroke="white" stroke-width="1.32602" stroke-miterlimit="10"/>
<path d="M9.42143 13.4666H8.09541V12.1406H9.42143V13.4666Z" fill="white"/>
<path d="M6.76939 6.7923C6.76939 5.69378 7.6599 4.80326 8.75842 4.80326C9.85694 4.80326 10.7474 5.69378 10.7474 6.7923C10.7474 7.37354 10.498 7.89647 10.1005 8.26011L8.75842 9.48854V10.8146" stroke="white" stroke-width="1.32602" stroke-miterlimit="10"/>
</g>
</svg>
