<svg width="22" height="25" viewBox="0 0 22 25" fill="none" xmlns="http://www.w3.org/2000/svg">
<path d="M17.3104 17.5018L15.0824 16.7593L14.2826 15.1596C15.0032 14.4262 15.5035 13.4558 15.6722 12.4436L15.7719 11.8457H16.625C17.4004 11.8457 18.0312 11.2149 18.0312 10.4395V7.48633C18.0312 3.6093 14.877 0.455078 11 0.455078C7.11303 0.455078 3.96875 3.60025 3.96875 7.48633V10.4395C3.96875 11.0505 4.36067 11.5716 4.90625 11.7651V12.3145C4.90625 13.0899 5.53709 13.7207 6.3125 13.7207H6.72416C6.92736 14.1621 7.19037 14.571 7.51044 14.9382C7.57681 15.0145 7.64605 15.0885 7.71697 15.1605L6.91756 16.7593L4.68955 17.5018C2.099 18.3656 0.21875 21.0928 0.21875 23.9863C0.21875 24.2452 0.428609 24.4551 0.6875 24.4551H21.3125C21.5713 24.4551 21.7812 24.2452 21.7812 23.9863C21.7812 21.0928 19.901 18.3656 17.3104 17.5018ZM17.0938 10.4395C17.0938 10.6979 16.8835 10.9082 16.625 10.9082H15.9096C16.0288 9.98523 16.1082 9.00306 16.1401 8.0357C16.141 8.00842 16.1418 7.98189 16.1426 7.95508H17.0938V10.4395ZM5.375 10.9082C5.11653 10.9082 4.90625 10.6979 4.90625 10.4395V7.95508H5.85772C5.85927 8.00397 5.86091 8.05309 5.86273 8.10255C5.86278 8.10423 5.86287 8.10588 5.86292 8.10756C5.86292 8.1077 5.86292 8.10784 5.86292 8.10798C5.89573 9.04886 5.97411 10.0055 6.09055 10.9082H5.375V10.9082ZM6.3125 12.7832C6.05403 12.7832 5.84375 12.5729 5.84375 12.3145V11.8457H6.22803L6.32778 12.4438C6.34681 12.5575 6.3702 12.6707 6.39725 12.7832H6.3125ZM5.84455 7.01758H4.92406C5.16148 3.87597 7.7833 1.39258 11 1.39258C14.2024 1.39258 16.8357 3.87564 17.0759 7.01758H16.1555C16.1218 4.42881 14.0136 2.33008 11.4196 2.33008H10.5805C7.9865 2.33008 5.87825 4.42881 5.84455 7.01758ZM10.5805 3.26758H11.4195C13.52 3.26758 15.22 4.98559 15.2188 7.08367C15.2188 7.23119 15.2176 7.35962 15.2151 7.47648C15.2151 7.47798 15.215 7.47953 15.215 7.48108L14.6287 7.39731C13.0359 7.16987 11.532 6.41791 10.394 5.27987C10.306 5.19198 10.1868 5.14258 10.0625 5.14258C8.80363 5.14258 7.59856 5.71614 6.80197 6.68514C6.99828 4.77644 8.61186 3.26758 10.5805 3.26758ZM7.36906 12.7832C7.13441 12.0026 6.86591 9.70572 6.80656 8.23384L7.43745 7.39263C8.01687 6.62031 8.91833 6.14045 9.87725 6.08537C11.139 7.28612 12.7713 8.07906 14.4962 8.32534L15.1863 8.42397C15.1401 9.40295 15.0459 10.3854 14.9108 11.2889C14.9108 11.2892 14.9107 11.2895 14.9107 11.2898C14.8678 11.5803 14.8339 11.7672 14.7475 12.2894C14.4992 13.7784 13.3882 15.1248 11.9215 15.4915C11.3179 15.6423 10.682 15.6422 10.0787 15.4915C9.16292 15.2626 8.3232 14.629 7.78128 13.7207H8.73688C8.93038 14.2663 9.45139 14.6582 10.0625 14.6582H11C11.777 14.6582 12.4062 14.029 12.4062 13.252C12.4062 12.4765 11.7754 11.8457 11 11.8457H10.0625C9.4378 11.8457 8.92447 12.2492 8.73608 12.7832H7.36906ZM10.0231 16.4402C10.3446 16.5079 10.6724 16.5426 11 16.5426C11.2565 16.5426 11.513 16.5211 11.7665 16.4795L10.9383 17.3554L10.0231 16.4402ZM10.2938 18.0369L8.80705 19.6092C8.39773 18.8257 8.04603 18.0103 7.75756 17.1756L8.31589 16.0589L10.2938 18.0369ZM13.6047 15.9001L14.2423 17.1755C13.9534 18.0117 13.6016 18.8274 13.1927 19.6099L11.6014 18.0186L13.6047 15.9001ZM9.59375 13.252C9.59375 12.9932 9.80366 12.7832 10.0625 12.7832H11C11.2585 12.7832 11.4688 12.9935 11.4688 13.252C11.4688 13.5108 11.2588 13.7207 11 13.7207H10.0625C9.80403 13.7207 9.59375 13.5104 9.59375 13.252ZM1.175 23.5176C1.36077 21.1954 2.90619 19.0847 4.98603 18.3912L6.95919 17.7336C7.32069 18.7332 7.76853 19.7048 8.29339 20.6277C8.29428 20.6293 8.29513 20.6309 8.29602 20.6324L8.29606 20.6325C8.67955 21.307 9.11117 21.9661 9.57913 22.5918L10.1558 23.5176H1.175ZM11 23.0997L10.3643 22.0791C10.3572 22.0677 10.3496 22.0566 10.3415 22.0458C9.96191 21.5395 9.60781 21.0099 9.28531 20.4679L10.957 18.7L12.7185 20.4615C12.3938 21.0075 12.0385 21.5392 11.6586 22.0457C11.6356 22.0763 11.6682 22.0281 11 23.0997ZM11.8442 23.5176L12.4208 22.5919C12.8908 21.9638 13.3256 21.2994 13.7129 20.617C13.7152 20.6128 13.7174 20.6086 13.7198 20.6045C13.7201 20.604 13.7203 20.6035 13.7206 20.603C14.2388 19.6889 14.682 18.7258 15.0408 17.7336L17.0139 18.3912C19.0938 19.0847 20.6392 21.1954 20.825 23.5176H11.8442Z" fill="white"/>
</svg>
